<svg viewBox="0 0 314 314" xmlns="http://www.w3.org/2000/svg"><path fill="#d5dcf1" d="M273.13 208.74l-.1.1c-14.2 33.9-39.2 31-47.5 29-2.5-.5-4.3-1.4-6.3-1.3a11.75 11.75 0 0 0-6.7 2.4c-25.5 20.2-47.9 24.6-59 25.5a50.47 50.47 0 0 1-8.8 0l-31.7-5.9h-.4l-16.3 1c-2.4.4-9.8-1-14.8-6.9l-8.3-13.2-11.6-21c-.1-.3-11.5-25.8-8-70.3l.1-1.2v-.6l-.4-2.2-.3.1c-.1-12.9 1.2-38.7 10.9-51.5l8-7.8a40.3 40.3 0 0 1 9.6-6.9l32.8-16.7 1-.8a6.07 6.07 0 0 1 8.3.7l15.5 21.7a19.84 19.84 0 0 0 2 2.5c1.9 2.3 4.6 5.5 4.3 7.5l-.3 2.1a17.48 17.48 0 0 1-5.2 9.7l-25.1 13.4-6.6 1.6-3.4-.2c-1.5-.1-1.8-.8-2.6-3.7-.2-.8-.5-1.8-.8-2.8l-.6-1.6-5.1 1.9-9.7 6a10.63 10.63 0 0 0-4.9 7.7l-.1 3.9c.4 1.2.4.4 1.8 3.3l13.8 24.6c2 3.6 7.5 14 8.4 17.9.3 1.5 1.3 9.3 1.2 10.2v.7l-.1 4.6a1.84 1.84 0 0 0 1.7 1.8h.2a1.73 1.73 0 0 0 1.6-1.7l.1-2.1c.4.1.8.2 1.1.3l.7.2a11.43 11.43 0 0 1 2.9 1.5 22.66 22.66 0 0 0-4 6.8 1.67 1.67 0 0 0 .9 2.1 1.7 1.7 0 0 0 .7.1 1.5 1.5 0 0 0 1.4-1c1.8-4.4 3.6-6.1 4.3-6.7a2.38 2.38 0 0 0 1.1-.6c4.9-6.1 13.2-14.1 25-18.3a109.13 109.13 0 0 1 27.1-5.9 54 54 0 0 1 6.9-.2c1.1 0 2 .1 2.8.1l.4.1a2.15 2.15 0 0 0 .8 0c1.1.3 2.6.7 3.7 1.1a1.48 1.48 0 0 0 .7.1 1.87 1.87 0 0 0 1.5-1.1 1.68 1.68 0 0 0-1-2.1c-.3-.1-1.2-.4-2.3-.7 4.9-7 23.5-30.6 54.8-33 3-.2 6-.2 9.1-.1a19.9 19.9 0 0 1 4.4.9c14.4 3.6 25.3 17.3 25.9 32.7v3.4c.1.3 3.6 20.9-5.5 38.8z"/><path fill="#eb5c2c" d="M196.63 197.24l.1.1a13 13 0 0 1 1 4.2v.2a24.09 24.09 0 0 1 0 3.8c-.4 4.4-2.2 9-5.3 13.9a71.12 71.12 0 0 1-10.1 12.3 102.93 102.93 0 0 1-13 11 109.48 109.48 0 0 1-14.9-8.2 67.77 67.77 0 0 1-12.3-10.1 32.49 32.49 0 0 1-7.9-12.6 15.25 15.25 0 0 1-.8-3.7v-.3a12 12 0 0 1 .2-4.3v-.2a17.32 17.32 0 0 1 28.8-9.7l2.3 2.2 1.9-2.6a17.43 17.43 0 0 1 12.3-7.1 17.17 17.17 0 0 1 10.8 2.5 8.8 8.8 0 0 0 1 .6l-3 3.8-3.7-3-1.8 2.2 9.5 7.8 1.8-2.2-3.7-3 3-3.7a20.7 20.7 0 0 1 3.8 6.1z"/><path fill="#1f1f40" d="M151.63 201.54l1.2 12-5.1.5-1.2-12-2.4.3 2 19.9 2.4-.3-.6-5.7 5.1-.5.6 5.7 2.3-.2-2-19.9zm7.8 1.5l1.8 17.7 2.4-.3-1.8-17.7 3.3-.3-.2-2.2-9 .9.2 2.2zm11.8 16.7l-1.5-15.3 2.3 3.2 2.4-.2 1.6-3.6 1.5 15.2 2.4-.2-2-19.9-2.4.2-2.6 5.7-3.7-5-2.4.2 2 19.9zm11.7-21.3l-2.4.2 2 19.9 5.9-.4 1.8-2.6-5.5.6zm-2.6 25.3l-22.9 3a1.62 1.62 0 0 0-1.4 1.9 1.73 1.73 0 0 0 1.7 1.5h.2l22.9-3a1.62 1.62 0 0 0 1.4-1.9 1.69 1.69 0 0 0-1.9-1.5zm31.7-48.7l-8.4.8-.8-8.4-.3-2.8-2.8.3 1.2 12-3.8 4.6-.6-6.4-.3-2.8-2.8.3 1.2 12-2.2 2.7a20 20 0 0 0-13.8-3.8 19.64 19.64 0 0 0-14.3 8.3 20 20 0 0 0-15.6-5.3 20.19 20.19 0 0 0-17.8 16.4 17.41 17.41 0 0 0-.2 5.2v.4a20.54 20.54 0 0 0 .9 4.3c3 9.8 12.1 17.9 20.6 23.7l-6.7 8.1-4.5-3.7-2.7 13.3 13.3-4.7-3.9-3.2 6.8-8.4a112.51 112.51 0 0 0 15.1 8s28.7-19.1 30.8-40.1a16.2 16.2 0 0 0 0-4.4v-.4a14.65 14.65 0 0 0-1.3-5.1 20.08 20.08 0 0 0-4.7-7l2.2-2.7 12-1.2-.3-2.8-2.8.3-6.4.6 3.8-4.6 12-1.2-.3-2.8-2.6.5zm-15.4 22.2l.1.1a13 13 0 0 1 1 4.2v.2a24.09 24.09 0 0 1 0 3.8c-.4 4.4-2.2 9-5.3 13.9a71.12 71.12 0 0 1-10.1 12.3 102.93 102.93 0 0 1-13 11 109.48 109.48 0 0 1-14.9-8.2 67.77 67.77 0 0 1-12.3-10.1 32.49 32.49 0 0 1-7.9-12.6 15.25 15.25 0 0 1-.8-3.7v-.3a12 12 0 0 1 .2-4.3v-.2a17.32 17.32 0 0 1 28.8-9.7l2.3 2.2 1.9-2.6a17.43 17.43 0 0 1 12.3-7.1 17.17 17.17 0 0 1 10.8 2.5 8.8 8.8 0 0 0 1 .6l-3 3.8-3.7-3-1.8 2.2 9.5 7.8 1.8-2.2-3.7-3 3-3.7a20.7 20.7 0 0 1 3.8 6.1zm-75.9-105.8a1.22 1.22 0 0 0 .1 1.6 1.08 1.08 0 0 0 .7.3.91.91 0 0 0 .8-.4c2.4-2.8.3-7.5.2-7.7a1.12 1.12 0 0 0-2 1c.5.9 1.4 3.8.2 5.2zm-45.5 73.9a1.24 1.24 0 0 0-2.4.6 18.54 18.54 0 0 1-2.5 16c-1.3 2-2.4 3-2.6 5.6a8.85 8.85 0 0 0 0 2.3c-7.7-14.8-5.6-30.6-3.6-47.3.2-1.6-2.3-1.6-2.5-.1-2.3 19.4-4.7 36.9 7 53.7a1.16 1.16 0 0 0 .7.5 17 17 0 0 0 3.7 5.8c1.1 1.1 2.9-.6 1.8-1.7a16.7 16.7 0 0 1-4.4-9.7c-.5-4.7 2-6.8 3.9-10.5 2.3-4.5 2.2-10.4.9-15.2zm206.7 4.4v-3.1c-.7-16.8-12.7-31.9-28.4-35.8-.1 0-.4-.1-1-.2.1-.1-5.8-1.3-13.6-.8-34.7 2.3-54.5 30-58.2 35.7-.8 0-1.7-.1-2.7-.1-2.3 0-4.7.1-7.2.2a111.57 111.57 0 0 0-28 6c-11.9 4.2-20.4 12.1-25.7 18.3h-.1a15.16 15.16 0 0 0-4.4-2.3l-.8-.2a13.89 13.89 0 0 1-1.9-.6c-.1-2.5-1-9.4-1.3-10.7-1.2-5.3-8.5-18.3-8.8-18.9l-13.7-24.5c-.6-1.2-1.1-1.6-1.6-2.6v-2.6a7.16 7.16 0 0 1 3.3-5.1l9.3-5.8 1.7-.6.2.8c.7 2.7 1.6 6 5.6 6.2l3.9.3 7.5-1.8 25.6-13.7.3-.2a20.32 20.32 0 0 0 6.4-11.8l.4-2.1c.5-3.5-2.6-7.2-5.1-10.1-.7-.8-1.3-1.6-1.8-2.3l-15.6-21.7-.1-.1a9.27 9.27 0 0 0-12.9-1.1l-.6.5-32.5 16.4a45.7 45.7 0 0 0-10.5 7.5l-8.1 7.9-.2.2c-5.9 7.7-9.7 20.4-11.1 37.8a178 178 0 0 0-.4 23.5c-2.6 42.8 8.1 66.9 8.6 68l11.7 21.2 8.5 13.5c5.5 6.7 13.7 8.7 17.5 8.4a.62.62 0 0 0 .5-.1l15.9-1 31.5 5.9a48.53 48.53 0 0 0 9.6 0c11.5-.9 34.6-5.4 60.9-26.2a10.45 10.45 0 0 1 7-1.6v.1a38.68 38.68 0 0 0 12.7 1.9c12.2 0 30.4-5.1 41.7-31.9 9.4-18.3 6.4-38.4 6-40.7zm-173.6-49.9l-3.4-.2c-1.5-.1-1.8-.8-2.6-3.7-.2-.8-.5-1.8-.8-2.8l-.3-.7 2-.3a20.05 20.05 0 0 0 7.4 7.2zm7.1-1.8a19.52 19.52 0 0 1-8.9-6.8 24.79 24.79 0 0 0 4.9-2.4l.5.8 2.9 3.2a5.62 5.62 0 0 0 4 1.4 18.61 18.61 0 0 0 3.4-.4 7.84 7.84 0 0 1 1.4-.2zm-1.6-10.8a13.72 13.72 0 0 0 1.8-1.6l-.4.6a5.77 5.77 0 0 0-.6 1.7zm159.3 101.7l-.1.1c-14.2 33.9-39.2 31-47.5 29-2.5-.5-4.3-1.4-6.3-1.3a11.75 11.75 0 0 0-6.7 2.4c-25.5 20.2-47.9 24.6-59 25.5a50.47 50.47 0 0 1-8.8 0l-31.7-5.9h-.4l-16.3 1c-2.4.4-9.8-1-14.8-6.9l-8.3-13.3-11.6-21c-.1-.3-11.5-25.8-8-70.3l.1-1.2v-.6l-.4-2.2-.3.1c-.1-12.9 1.2-38.7 10.9-51.5l8-7.8a40.3 40.3 0 0 1 9.6-6.9l32.8-16.7 1-.8a6.07 6.07 0 0 1 8.3.7l15.5 21.7a19.84 19.84 0 0 0 2 2.5c1.9 2.3 4.6 5.5 4.3 7.5l-.3 2.1a18.57 18.57 0 0 1-3.2 7.5l-3.8 2.7a22.69 22.69 0 0 1-8.9 3.8l-5.2 1a20 20 0 0 0-2.4.4c-1.9.3-3.6.7-4.5-.2l-.4-.4a5.11 5.11 0 0 1 .4-2.7c2.2-4.3 10.8-6.2 10.9-6.2h.1l.9.2h.2a9.52 9.52 0 0 0 8.6-3.8 9 9 0 0 0 1.1-9.1l-.6-1.4c-2.8-5.6-8.9-7.8-13.4-8.7a7.08 7.08 0 0 0 1.7-4.9 1 1 0 0 0-1.2-.9 1.19 1.19 0 0 0-1 1.2c0 .1.2 1.9-2.1 4.2a29.49 29.49 0 0 0-3.2-.2h-.4l-2.8.7a16.82 16.82 0 0 0 4.5-7.4 1.14 1.14 0 0 0-2.2-.6 16 16 0 0 1-5.7 7.9 1.23 1.23 0 0 0-.5 1l-6.7 1.6a1.83 1.83 0 0 0-1.4 1.8 1.7 1.7 0 0 0 2.1 1.5l13.2-3.2a7.78 7.78 0 0 1 1.3.1 1.42 1.42 0 0 0 .6.2.6.6 0 0 0 .4-.1c3.8.4 10.9 1.9 13.6 7.3a4.88 4.88 0 0 1 .3.7 7.24 7.24 0 0 1-.5 6.4 6.11 6.11 0 0 1-5.5 2.4l-9.5-1.9a1.68 1.68 0 0 0-1.8.9c-.3.6-7.7 14.9-23.7 11.8a1.68 1.68 0 0 0-2 1.6 1.72 1.72 0 0 0 1.4 1.7 22.5 22.5 0 0 0 4.4.4l-2.5 1-9.7 6a10.63 10.63 0 0 0-4.9 7.7l-.1 3.9c.4 1.2.4.4 1.8 3.3l13.8 24.6c2 3.6 7.5 14 8.4 17.9.3 1.5 1.3 9.3 1.2 10.2v.7l-.1 4.6a1.84 1.84 0 0 0 1.7 1.8h.2a1.73 1.73 0 0 0 1.6-1.7l.1-2.1c.4.1.8.2 1.1.3l.7.2a11.43 11.43 0 0 1 2.9 1.5 22.07 22.07 0 0 0-3.9 6.7 1.85 1.85 0 0 0 .7 2.2 2.92 2.92 0 0 0 .9.2 1.5 1.5 0 0 0 1.4-1c1.8-4.4 3.6-6.1 4.3-6.7a2.38 2.38 0 0 0 1.1-.6c4.9-6.1 13.2-14.1 25-18.3a109.13 109.13 0 0 1 27.1-5.9 54 54 0 0 1 6.9-.2c1.1 0 2 .1 2.8.1l.4.1a2.15 2.15 0 0 0 .8 0c1.1.3 2.6.7 3.7 1.1a1.48 1.48 0 0 0 .7.1 1.87 1.87 0 0 0 1.5-1.1 1.68 1.68 0 0 0-1-2.1c-.3-.1-1.2-.4-2.3-.7 4.9-7 23.5-30.6 54.8-33 3-.2 6-.2 9.1-.1a19.9 19.9 0 0 1 4.4.9c14.4 3.6 25.3 17.3 25.9 32.7v3.4c-.1.2 3.5 20.8-5.6 38.8zm-155.1-105.8a23.53 23.53 0 0 0 2.6-3.6l3 .6a23.45 23.45 0 0 0-5.6 3zm-40.2-13.3c-.1 0-9.3 3.7-8.7 12.9a1.11 1.11 0 0 0 1.1 1.1h.1a1.2 1.2 0 0 0 1.1-1.2c-.4-7.6 7-10.6 7.3-10.7a1 1 0 0 0 .6-1.4 1.23 1.23 0 0 0-1.5-.7zm47.8 153.8c-24.9 11.6-38.8-8.4-39.3-9.2a1.664 1.664 0 1 0-2.8 1.8c.1.2 9.8 14.3 27.2 14.3a38.52 38.52 0 0 0 16.3-3.9 1.68 1.68 0 0 0 .8-2.2 1.78 1.78 0 0 0-2.2-.8zm130.5-72a1.63 1.63 0 0 0-1.8 1.6c-.1 1.1-2.1 26-28.5 27.4a1.69 1.69 0 0 0-1.6 1.8 1.67 1.67 0 0 0 1.7 1.6h.1c29.4-1.5 31.7-30.3 31.7-30.5a1.73 1.73 0 0 0-1.6-1.9zm-140.5-13.3a1.012 1.012 0 1 0-1.1 1.7l13 8.2a1.06 1.06 0 0 0 .5.2.89.89 0 0 0 .8-.5 1 1 0 0 0-.3-1.4zm27.5-23.9a1.09 1.09 0 0 0-.7 1.2l5.9 20.8a1 1 0 0 0 1 .7h.3a1.09 1.09 0 0 0 .7-1.2l-5.9-20.8a1 1 0 0 0-1.3-.7zm32 18.2a.6.6 0 0 0 .4.1.87.87 0 0 0 .9-.6l6.5-15.2a1 1 0 0 0-1.8-.8l-6.5 15.2a.94.94 0 0 0 .5 1.3zm-13.1.9a1 1 0 0 0 1-1.1l-.7-10.5a1.005 1.005 0 1 0-2 .2l.7 10.5a1 1 0 0 0 1 .9zm-24.1 7.2a1.42 1.42 0 0 0 .6-.2 1 1 0 0 0 .1-1.4l-8.7-10.6a1 1 0 1 0-1.5 1.3l8.7 10.6a1.14 1.14 0 0 0 .8.3z"/></svg>