<svg viewBox="0 0 314 314" xmlns="http://www.w3.org/2000/svg"><path fill="#d0d2d3" d="M63.03 251.74a51.75 51.75 0 0 1-14.5 3c-8.6.6-8.9-2.7-13.3-2.4a10.06 10.06 0 0 0-6.8 3.3l.1 18.9 2.6 4.8 5.9.6h12.1l9.4-.3 4.2-2.3.6-5.9-.3-19.7z"/><path fill="#9ea5cd" d="M120.83 42.14h34.9v22h-34.9v-22z"/><circle cx="138.23" cy="165.84" r="5.6" fill="#d0d2d3"/><circle cx="132.73" cy="144.04" r="5.6" fill="#d0d2d3"/><circle cx="137.43" cy="119.34" r="5.6" fill="#d0d2d3"/><circle cx="115.73" cy="85.94" r="5.6" fill="#d0d2d3"/><circle cx="170.93" cy="43.24" r="5.6" fill="#d0d2d3"/><circle cx="139.73" cy="84.84" r="3.1" fill="#d0d2d3"/><circle cx="135.63" cy="69.84" r="3.1" fill="#d0d2d3"/><path fill="#d5dcf1" d="M109.93 197.84s7.7-4.5 16.4 6l18.7 5.8s6-5.9 11.8-5.9 8.9 3.8 10.9 5.9l2 7.6-3.6 9.1-10.5 11.7-9.5 4.3h-12.5l-11.2-3.2-8-6.5-3.5-4.8s-4.4-11.2-4.4-12.7v-12l3.4-5.3z"/><circle cx="134.73" cy="191.64" r="8.4" fill="#d0d2d3"/><circle cx="135.83" cy="99.74" r="3.1" fill="#d0d2d3"/><path fill="#eb5c2c" d="M55.33 166.34s1.4-2.5 6.8 3.5a46.55 46.55 0 0 1 4.6 5.9 17.81 17.81 0 0 0 6.3 6.2l.3.2 5.5-1.6.3 23.7s-1.9 7.4-3 8.5-6 4.6-7.9 4.6-8.5-.3-9.5-2.7-3.2-8.7-3.2-8.7l-.2-39.6z"/><path fill="#2a2f5a" d="M188.73 275.24h-7a1.5 1.5 0 0 1 0-3h7a1.54 1.54 0 0 1 1.5 1.5 1.47 1.47 0 0 1-1.5 1.5z"/><circle cx="241.73" cy="215.74" r="4.4" fill="#eb5c2c"/><path fill="#eb5c2c" d="M279.23 224.54a133.46 133.46 0 0 1-14.5 2 7.73 7.73 0 0 0-15.3.7c-10.4-.2-11.6-2.5-18.4-2.3-7.7.3-9.8 2.9-9.8 2.9v17.6l2.6 4.4 10.2.5h21l16.3-.3 7.3-2.2 1-5.5-.4-17.8z"/><path fill="#9ea5cd" d="M174.93 162.74l10.6-1.2a8.9 8.9 0 0 1 4.8.8l8.3 4.1a8.71 8.71 0 0 0 10.2-1.9l2.4-2.5a8.7 8.7 0 0 1 11.4-1.1l-1.8 8.7-6.9 7.6-6.9 2.9-8.1 1.8-10.1-1.8-6.2-3.6-6.2-8z"/><ellipse cx="169.52" cy="141.75" fill="#fff" rx="4.6" ry="3.1" transform="rotate(-55.6 169.4 140.92)"/><path fill="#9ea5cd" d="M200.63 269.64l-23.2-33.7-.1-29a27.07 27.07 0 0 1-8.8 1.2 31.66 31.66 0 0 1-8.2-1l.3 29.2-24.5 34.6c-2 3.3 1 7.1 5.4 7.1h53c5.3.1 8.7-4.6 6.1-8.4z"/><path fill="#47519f" d="M147.33 259.74l13.5-1.2a16.91 16.91 0 0 1 12.6 4.1 7.88 7.88 0 0 0 7.9 1.5l2.2-.8a14.39 14.39 0 0 1 16.9 5.5l1.7 2.6-2.5 5.5-5.1 1.3-32.7-.2-22.9-.4-4-4.7 4-5.8 8.4-7.4z"/><ellipse cx="168.63" cy="204.54" fill="#9ea5cd" rx="9.6" ry="3.7"/><path fill="#eb5c2c" d="M142.83 42.34h-.4a2.26 2.26 0 0 1-2.3-2.3v-2.6a2.33 2.33 0 0 1 2.3-2.3h.4a2.26 2.26 0 0 1 2.3 2.3v2.6a2.26 2.26 0 0 1-2.3 2.3z"/><path fill="#2a2f5a" d="M45.83 229.34c-2.7 0-7 .1-11 .5l-1-5.5a3.45 3.45 0 1 0-2.8.9l.9 5.1c-4.2.7-7.5 1.9-7.5 3.9a2.25 2.25 0 0 0 .8 1.6l1.8 7v31.7a6.45 6.45 0 0 0 6.2 6.6h25.3a6.39 6.39 0 0 0 6.2-6.6v-32l1.7-6.7a2.09 2.09 0 0 0 .9-1.7c0-4.3-15-4.8-21.5-4.8zm-13.4 3.9l.3 1.9a26.27 26.27 0 0 1-4.5-1 28.54 28.54 0 0 1 4.2-.9zm.8 44.7a3.39 3.39 0 0 1-3.2-3.6v-31.8l-1.3-5.1a28.85 28.85 0 0 0 4.6.9l7.1 39.7h-7.2v-.1zm28.5-35.7v3.2c-.6.3-2.8 1.1-8 1.5a1.62 1.62 0 0 0-1.4 1.6 1.52 1.52 0 0 0 1.5 1.4h.1a30.55 30.55 0 0 0 7.8-1.3v5.2c-.6.3-2.8 1.1-8 1.5a1.62 1.62 0 0 0-1.4 1.6 1.52 1.52 0 0 0 1.5 1.4h.1a30.55 30.55 0 0 0 7.8-1.3v5.6c-.6.3-2.8 1.1-8 1.5a1.62 1.62 0 0 0-1.4 1.6 1.52 1.52 0 0 0 1.5 1.4h.1a30.55 30.55 0 0 0 7.8-1.3v8.7a3.39 3.39 0 0 1-3.2 3.6h-15.1l-7-39.3c3.5.3 7.1.4 9.5.4 4.2 0 12.1-.2 17.1-1.6l-1.3 4.6zm-15.9-6.2c-4 0-7.3-.2-10-.4l-.5-2.7a99.66 99.66 0 0 1 10.5-.5c9.4 0 15.3 1 17.6 1.8-2.2.8-8.2 1.8-17.6 1.8zm244.4 18.5h-18.4l-3.2-2.7h3.1c5.3 0 9.4-2.7 9.4-6.2v-29.5l2.8-6a2.12 2.12 0 0 0 1.6-2c0-2-2.6-2.9-11.2-3.7-6.4-.6-14.9-.9-23.9-.9s-17.5.3-23.9.9c-8.6.8-11.2 1.7-11.2 3.7a2.14 2.14 0 0 0 1.5 2l2.9 6.2v29.3c0 3.5 4.1 6.2 9.4 6.2h2.9l-2.3 2.7h-17.1a1.54 1.54 0 0 0-1.5 1.5v3.2h-10.3v-29h7.1a1.5 1.5 0 0 0 0-3h-7.1v-28.7h7.1a1.5 1.5 0 0 0 0-3h-7.1v-11.7l.4-.4a25.8 25.8 0 0 0 20.7-14.4 1.43 1.43 0 0 0 1-1.8l-.1-.3a25.74 25.74 0 0 0-10.2-30.9v-22.9l1.3-4.9a2.1 2.1 0 0 0 .7-1.4c0-3.3-8.9-4-16.4-4s-16.4.7-16.4 4a2 2 0 0 0 .6 1.4l1.3 5.1v23.2a22.24 22.24 0 0 0-4.8 4.4l-4.2-3.2-.3-.2a3.18 3.18 0 0 0-1.1-1.2 4.59 4.59 0 0 0-4-.3 8.41 8.41 0 0 0-3.3 2.7 7.19 7.19 0 0 0-1.4 4 4.2 4.2 0 0 0 1.7 3.6 3.94 3.94 0 0 0 2.1.6.9.9 0 0 0 .5-.1l1.7 1.3 2.9 2.3a24.57 24.57 0 0 0-1 7.2 26.56 26.56 0 0 0 2.1 10.2.48.48 0 0 0-.1.4 1.49 1.49 0 0 0 1.1 1.8h.1a25.69 25.69 0 0 0 21.4 13.4.37.37 0 0 0 .1.3 2.09 2.09 0 0 0 .4.6v11.2h-6.8a1.5 1.5 0 0 0 0 3h6.8v28.6h-6.8a1.5 1.5 0 0 0 0 3h6.8v29h-2.6l-16-23.6-.1-28.9a3.23 3.23 0 0 0 .8-2.1c0-3.5-5.6-5.2-11-5.2a32.9 32.9 0 0 0-18.4-18.2v-14.7l.2-49.9h-1c2.7-1 4.1-2.3 4.1-3.9l-.1-7c0-3.1-4.1-5-9.3-5.8v-34.2h11.2a1.54 1.54 0 0 0 1.5-1.5v-6.1h35.5v37.1a1.5 1.5 0 0 0 3 0v-38.6a1.54 1.54 0 0 0-1.5-1.5h-37v-12.9a1.54 1.54 0 0 0-1.5-1.5h-34.9a1.54 1.54 0 0 0-1.5 1.5v12.9h-50.8a1.54 1.54 0 0 0-1.5 1.5s-.1 14.9-.2 19.6a7.78 7.78 0 0 0-4.4 2 5.93 5.93 0 0 0-1.3 5.8 6.68 6.68 0 0 0 4.2 4.7l.7.4c-2.9 1-4.8 2.8-5.1 5.2a6.61 6.61 0 0 0 3.4 6.3.1.1 0 0 1 .1.1l.7.3a.2.2 0 0 0-.2.1c-2.7 1.2-4.3 3.3-4.5 5.6a5.87 5.87 0 0 0 3 5.3l2.5 1.9v12.7c-7.6.2-14.9 2.4-14.9 6.4h-.1v6.5a2.27 2.27 0 0 0-.1.4.6.6 0 0 0 .1.4v.1c.3 1.2 1.4 2.2 3.3 3.1v62.3q0 6.15 3.6 9.6a13.82 13.82 0 0 0 9.2 3.5h.2a13.14 13.14 0 0 0 13.1-13.1v-46.2l16.5.1v99.5h-20.1a6.06 6.06 0 0 0-6.1 6.1v.8a6.08 6.08 0 0 0 5.9 6.1 1.43 1.43 0 0 0-1.2 1.5 1.54 1.54 0 0 0 1.5 1.5h7a1.54 1.54 0 0 0 1.5-1.5 1.63 1.63 0 0 0-1.1-1.5h25.7a1.43 1.43 0 0 0-1.1 1.5 1.54 1.54 0 0 0 1.5 1.5h7a1.54 1.54 0 0 0 1.5-1.5 1.59 1.59 0 0 0-1.2-1.5 6.08 6.08 0 0 0 5.9-6.1v-.8a6.06 6.06 0 0 0-6.1-6.1h-17.6v-98.6l2.3 1.1a1.27 1.27 0 0 0 .6.1 1.53 1.53 0 0 0 .7-2.9l-1.5-.7a1.29 1.29 0 0 0-.5-1.1l2.4-2.6a1.49 1.49 0 1 0-2.2-2l-1.9 2v-16.6h24.8v44a33.1 33.1 0 0 0 14 63.1 32.54 32.54 0 0 0 18.2-5.5l-21.7 30.6-.1.1a5.69 5.69 0 0 0-.1 5.9 7.86 7.86 0 0 0 6.9 3.7h53a8.75 8.75 0 0 0 7.8-4.3 6 6 0 0 0 .7-3.2h8.1v2.9a1.54 1.54 0 0 0 1.5 1.5h3.7a1.27 1.27 0 0 0-.1.6 1.54 1.54 0 0 0 1.5 1.5h7a1.54 1.54 0 0 0 1.5-1.5l-.1-.6h50.6a1.27 1.27 0 0 0-.1.6 1.54 1.54 0 0 0 1.5 1.5h7a1.54 1.54 0 0 0 1.5-1.5l-.1-.6h3.8a1.54 1.54 0 0 0 1.5-1.5v-19.2a1.45 1.45 0 0 0-1.5-1.4zm-87.1-74.4a20.36 20.36 0 0 0 .4-8.2v-.1a95.86 95.86 0 0 0 14.6-1.9 22.89 22.89 0 0 1-15 10.2zm-4.7-74.4a56.61 56.61 0 0 1 11.7 1 55.85 55.85 0 0 1-11.7 1 55.85 55.85 0 0 1-11.7-1 56.61 56.61 0 0 1 11.7-1zm0 5a57.37 57.37 0 0 0 12.2-1l-.8 3v2.1a23.83 23.83 0 0 1-5.6 1 1.62 1.62 0 0 0-1.4 1.6 1.52 1.52 0 0 0 1.5 1.4h.1a35.27 35.27 0 0 0 5.4-.8v3.1a23.83 23.83 0 0 1-5.6 1 1.62 1.62 0 0 0-1.4 1.6 1.52 1.52 0 0 0 1.5 1.4h.1a35.27 35.27 0 0 0 5.4-.8v3.4a23.83 23.83 0 0 1-5.6 1 1.62 1.62 0 0 0-1.4 1.6 1.52 1.52 0 0 0 1.5 1.4h.1a35.27 35.27 0 0 0 5.4-.8v6.1a2.12 2.12 0 0 1-2 2.2h-19.3c-.1 0-.2 0-.2-.1a.1.1 0 0 1-.1-.1l-.2-.1-.2-.1-.1-.1-.2-.2-.1-.1a2.1 2.1 0 0 1-.4-1.1v-24l-.8-3.3a90.23 90.23 0 0 0 12.2.7zm-27 31.4a3.59 3.59 0 0 1-1.9 1.6 1.26 1.26 0 0 1-1.2 0 1.5 1.5 0 0 1-.4-1.1 4.88 4.88 0 0 1 .8-2.4 3.59 3.59 0 0 1 1.9-1.6 1.17 1.17 0 0 1 .7-.2.48.48 0 0 1 .4.1 1.19 1.19 0 0 1 .4 1.1 2.88 2.88 0 0 1-.7 2.5zm1.4 3.7a11.63 11.63 0 0 0 1.8-2 8.71 8.71 0 0 0 1-1.9l7.6 5.8-.2.1a.53.53 0 0 1-.3.2l-.6.6-.2.2a5.55 5.55 0 0 0-.6.8 8.8 8.8 0 0 0-.6 1 4.18 4.18 0 0 0-.4 1l-7.5-5.8zm10.9 5.5a4.35 4.35 0 0 1 .6-.7l.2-.2a.38.38 0 0 0 .2-.2.52.52 0 0 1 .4-.2h.1l.5-.2.3-.1a.37.37 0 0 1 .3.1c.4.3.4 1.6-.5 2.9s-2.1 1.8-2.5 1.5a1.08 1.08 0 0 1-.3-.9 4 4 0 0 1 .7-2zm-7.7 6.3a22.42 22.42 0 0 1 .6-5.2l3.5 2.6a.76.76 0 0 0 .4.2 3.48 3.48 0 0 0 1.1 1.3 3.61 3.61 0 0 0 2 .6 5.73 5.73 0 0 0 4.7-2.9c1.8-2.6 1.6-5.7-.3-7.1a4.67 4.67 0 0 0-1-.5l-.3-.4-5-3.8a24.22 24.22 0 0 1 3.3-3.1 4.35 4.35 0 0 0 .6.7l.1.1a4.57 4.57 0 0 0 1.6 1.1l.9.3h.2a2.77 2.77 0 0 0 .9.1h18.8a2.77 2.77 0 0 0 .9-.1.37.37 0 0 0 .3-.1l.6-.2.3-.1.6-.3a1.38 1.38 0 0 1 .4-.3.53.53 0 0 1 .3-.2 2.7 2.7 0 0 0 .7-.8.1.1 0 0 1 .1-.1l.3-.4.1-.2a22.61 22.61 0 0 1 9.5 18.5 21.65 21.65 0 0 1-1.8 8.8c-18.2 4.5-36.6 1.8-41.8.9a15.69 15.69 0 0 1-2.6-9.4zm.7 46.9c-.1.4-1.4 1.3-3.7 1.8a14.92 14.92 0 0 1-2.1.2 32 32 0 0 0-1-4.2c4.3.2 6.7 1.5 6.8 2.2zm-8.4 7.3a29.89 29.89 0 0 1-6.1 18.1l-.2-20.7a30.34 30.34 0 0 0 6.2.6 13.4 13.4 0 0 1 .1 2zm-.5-5.3c-1.1 0-2.3-.1-3.3-.2-2.5-.5-4-1.4-4-1.8.1-.6 2.3-1.8 6.3-2.1a27.27 27.27 0 0 1 1 4.1zm-17.1-101l.1 6.7v.2a5.34 5.34 0 0 1-2.5 1.3c-.1 0-10 3.6-16.7.6a1.523 1.523 0 1 0-1.2 2.8 18.3 18.3 0 0 0 7.6 1.4 35 35 0 0 0 9.6-1.5l-.1 18.4a36.43 36.43 0 0 1-20.2-.3v-18.9a1.79 1.79 0 0 0 .5-.7 1.58 1.58 0 0 0-1-1.9 7.54 7.54 0 0 1-2.8-1.3v-6.8c0-.7 2.4-2.2 6.8-3v2.1c-2 .5-3.6 1.4-3.6 3 0 3.5 7.8 3.7 10.2 3.7s10.2-.3 10.2-3.7c0-1.5-1.5-2.4-3.3-2.9v-2.1c4.1.9 6.2 2.2 6.4 2.9zm-13.4-3.3c1.5 0 2.8.1 4.1.2v1.9a31.28 31.28 0 0 0-3.9-.2 25.65 25.65 0 0 0-3.6.2v-1.9a18.85 18.85 0 0 1 3.4-.2zm-3.4-2.9v-33.7h7.5v33.7c-1.4-.1-2.7-.2-4.1-.2zm3.6 7.8c1.5 0 2.8.1 3.9.2v.1a1.61 1.61 0 0 0 .3.9 24.18 24.18 0 0 1-4.2.3 26.29 26.29 0 0 1-4.3-.3 1.7 1.7 0 0 0 .6-1 21.17 21.17 0 0 1 3.7-.2zm-15.2-63.5h31.9v19h-31.9v-19zm-45.3 122.2v39.9a10.14 10.14 0 0 1-10.1 10.1s-4.4.2-7.3-2.6c-1.8-1.7-2.7-4.2-2.7-7.4v-46.7a29.46 29.46 0 0 0 11.3 2.2 29.81 29.81 0 0 0 8.9-1.4l-.1 5.9zm.9-24.8h-.1a23 23 0 0 1-10.1 1.3 1.503 1.503 0 1 0-.2 3 14.77 14.77 0 0 0 2.1.1 31 31 0 0 0 7.6-1l-.1 12.2h-.1a27.14 27.14 0 0 1-20-.9v-12a1.79 1.79 0 0 0 .5-.7 1.58 1.58 0 0 0-1-1.9 7.54 7.54 0 0 1-2.8-1.3v-6.8c0-1 4.2-3.2 12-3.5v1.9c-3.2.1-8.7.8-8.7 3.7 0 3.5 7.8 3.7 10.2 3.7s10.2-.3 10.2-3.7c0-2.9-5.5-3.6-8.7-3.7v-1.9c7.4.3 11.4 2.3 11.7 3.3l.1 6.7v.2a8.66 8.66 0 0 1-2.6 1.3zm-10.7-6.6a27.34 27.34 0 0 1 6.3.7 22.13 22.13 0 0 1-6.3.7 27.34 27.34 0 0 1-6.3-.7 22.13 22.13 0 0 1 6.3-.7zm32.3.4v-37.6a1.5 1.5 0 0 0-3 0v37l-3-2.4a1.492 1.492 0 0 0-1.9 2.3l2.4 1.9-2.1 1a1.63 1.63 0 0 0-.7 2 1.56 1.56 0 0 0 1.3.8 1.85 1.85 0 0 0 .7-.2l3.3-1.6v18.6l-16.4-.1.1-13.3c2-.9 3-2 3.1-3.3h.1l-.1-7.1c0-4.1-7.3-6.1-14.7-6.4l-.1-13.4a1.43 1.43 0 0 0-.6-1.2l-3.1-2.4-.1-.1a2.84 2.84 0 0 1-1.6-2.6 4 4 0 0 1 2.6-3l3.5-1.1a1.38 1.38 0 0 0 1-1.3 1.76 1.76 0 0 0-.8-1.5l-4-1.9a3.49 3.49 0 0 1-1.9-3.3c.2-1.3 1.4-2.3 3.4-2.9a.76.76 0 0 0 .4-.2l1.9-1.3a1.56 1.56 0 0 0 0-2.6l-2.9-1.9a.76.76 0 0 0-.4-.2 3.59 3.59 0 0 1-2.3-2.7 3.07 3.07 0 0 1 .5-2.9 4.77 4.77 0 0 1 3.1-1.2h.1l.6-.1c1.4 0 1.4-1.4 1.4-2.4l.2-18.6h49.6v6.1a1.54 1.54 0 0 0 1.5 1.5h10.1v34.1c-5.4.9-9.8 2.9-9.8 5.9h-.1v6.5a2.27 2.27 0 0 0-.1.4.6.6 0 0 0 .1.4v.1c.3 1.2 1.4 2.2 3.3 3.1v18.7h-24.6v.4zm38.7 107.1a30.07 30.07 0 0 1-11.9-57.7l.9-.4v-45.4a36 36 0 0 0 10.4 1.4 42.36 42.36 0 0 0 9.8-1.2l-.1 27.7v16.8l1 .4a30.27 30.27 0 0 1 17.2 15.9c-4.3.5-8.1 2.1-8.1 5a3.93 3.93 0 0 0 1.2 2.6l.3 26.5a29.42 29.42 0 0 1-20.7 8.4zm61.3 32a5.49 5.49 0 0 1-5 2.6h-53a4.56 4.56 0 0 1-4.1-2.1 2.45 2.45 0 0 1 0-2.5l24.8-35v-2.3a32.93 32.93 0 0 0 9.1-22.7 14.77 14.77 0 0 0-.1-2.1 30.59 30.59 0 0 0 4.5-.6l.1 27.4 8.4 12.2c-.6.3-2.3.7-5.6.9a1.62 1.62 0 0 0-1.4 1.6 1.52 1.52 0 0 0 1.5 1.4h.1c3.8-.3 5.9-.8 7-1.4l3.9 5.6a21.39 21.39 0 0 1-5.3.8 1.62 1.62 0 0 0-1.4 1.6 1.52 1.52 0 0 0 1.5 1.4h.1c3.6-.3 5.7-.7 6.8-1.3l3.5 5.1-.2.2a22.75 22.75 0 0 1-5.7 1 1.62 1.62 0 0 0-1.4 1.6 1.52 1.52 0 0 0 1.5 1.4h.1c4.3-.3 6.4-.9 7.4-1.6l2.5 3.6a2.72 2.72 0 0 1 .4 3.2zm.4-93.6l-.4-.1a1.61 1.61 0 0 0-.9.3 22.86 22.86 0 0 1-18.5-9.8 114.16 114.16 0 0 0 17.3 1.3h3.1v.3a19.37 19.37 0 0 1-.6 8zm50.5 26.3c14.1 0 24.4.8 29.3 1.6-4.9.8-15.2 1.6-29.3 1.6s-24.4-.8-29.3-1.6c4.9-.9 15.2-1.6 29.3-1.6zm-21.2 42.2c-3.7 0-6.4-1.7-6.4-3.2v-30l-2.1-4.5a56.63 56.63 0 0 0 5.9.7c6.4.6 14.9.9 23.9.9s17.5-.3 23.9-.9a54.26 54.26 0 0 0 5.8-.7l-2 4.3v2.3a1.39 1.39 0 0 0-.7.8c-.6.3-2.6 1-7.4 1.3a1.62 1.62 0 0 0-1.4 1.6 1.52 1.52 0 0 0 1.5 1.4h.1a28 28 0 0 0 7.9-1.4v4.1a1.39 1.39 0 0 0-.7.8c-.6.3-2.6 1-7.4 1.3a1.62 1.62 0 0 0-1.4 1.6 1.52 1.52 0 0 0 1.5 1.4h.1a28 28 0 0 0 7.9-1.4v4.5a1.39 1.39 0 0 0-.7.8c-.6.3-2.6 1-7.4 1.3a1.62 1.62 0 0 0-1.4 1.6 1.52 1.52 0 0 0 1.5 1.4h.1a28 28 0 0 0 7.9-1.4v8.2c0 1.5-2.8 3.2-6.4 3.2h-42.6zm37.9 5.7h-15.1v-2.7h12.2a2.09 2.09 0 0 0 .4.6l2.5 2.1zm-31-2.7h12.8v2.7h-15.1zm52.6 21.9h-74.5v-16.2h74.5v16.2zm-19-8.1a1.54 1.54 0 0 0 1.5 1.5h.1a6.21 6.21 0 0 0 5.9 4.6 6.12 6.12 0 0 0 5.9-4.6 1.5 1.5 0 0 0 0-3 6.08 6.08 0 0 0-11.8 0h-.1a1.47 1.47 0 0 0-1.5 1.5zm7.6-3.1a3.11 3.11 0 0 1 2.7 1.6h-5.4a2.92 2.92 0 0 1 2.7-1.6zm2.7 4.6a2.92 2.92 0 0 1-2.7 1.6 3.11 3.11 0 0 1-2.7-1.6h5.4z"/><circle cx="220.63" cy="263.14" r="2.9" fill="#2a2f5a"/><circle cx="231.13" cy="263.14" r="2.9" fill="#2a2f5a"/><circle cx="241.43" cy="263.14" r="2.9" fill="#2a2f5a"/><path fill="#2a2f5a" d="M201.53 96.54a1.54 1.54 0 0 0 1.5-1.5v-36.5l46.3 13.3c0 1.9-.1 5.8-.1 7.9a8.27 8.27 0 0 0-4.1 1.2 3.62 3.62 0 0 0-1.8 3.8 5.43 5.43 0 0 0 3.4 3.7c-2.7 1-3.4 2.6-3.4 3.5-.2 1.6.9 3.1 2.8 4.1-2 .9-3.2 2.2-3.3 3.7 0 .8.2 2.7 3.2 3.9l2.2 1.1a10.07 10.07 0 0 0-3.2 1.1 3.62 3.62 0 0 0-1.8 3.8 5.43 5.43 0 0 0 3.4 3.7c-2.7 1-3.4 2.6-3.4 3.5-.2 1.6.9 3.1 2.8 4.1-2 .9-3.2 2.2-3.3 3.7 0 .8.2 2.7 3.2 3.9l2.2 1.1.1 11.2-19.5 39.1c-2.1.6-2.9 1.4-2.9 2.6 0 1.8 2 2.7 7.7 3.4a154.46 154.46 0 0 0 31.4 0c5.7-.7 7.7-1.6 7.7-3.4 0-1.2-.8-1.9-2.9-2.5l-18.6-38.8-.1-12.5a1.34 1.34 0 0 0-.8-1.3l-3.1-1.5a.1.1 0 0 1-.1-.1c-1.2-.5-1.4-.9-1.4-1s.5-.9 2.5-1.4l3.6-.7a1.4 1.4 0 0 0 1.2-1.4 1.5 1.5 0 0 0-1.1-1.5l-4-1.2a2.72 2.72 0 0 1-1.7-1.3c0-.2.7-1 3.3-1.5a.37.37 0 0 0 .3-.1l1.9-.8a1.42 1.42 0 0 0 .9-1.4 1.57 1.57 0 0 0-.9-1.4l-2.9-1.2-.3-.1a2.73 2.73 0 0 1-2.3-1.7.63.63 0 0 1 .4-.7 6.57 6.57 0 0 1 3.4-.8h.7a2.49 2.49 0 0 0 1.7-2.1 3.55 3.55 0 0 0-2.1-2.9l-3.1-1.5a.1.1 0 0 1-.1-.1c-1.2-.5-1.4-.9-1.4-1s.5-.9 2.5-1.4l3.6-.7a1.4 1.4 0 0 0 1.2-1.4 1.5 1.5 0 0 0-1.1-1.5l-4-1.2a2.72 2.72 0 0 1-1.7-1.3c0-.2.7-1 3.3-1.5a.37.37 0 0 0 .3-.1l1.9-.8a1.42 1.42 0 0 0 .9-1.4 1.57 1.57 0 0 0-.9-1.4l-2.9-1.2-.3-.1a2.73 2.73 0 0 1-2.3-1.7.63.63 0 0 1 .4-.7 6.57 6.57 0 0 1 3.4-.8h.7c1.4 0 1.5-1.1 1.5-3.1l.2-8.8a1.5 1.5 0 0 0-1.1-1.5l-49.3-14.2a1.91 1.91 0 0 0-1.3.2 1.43 1.43 0 0 0-.6 1.2v38.5a1.45 1.45 0 0 0 1.5 1.4zm47.7 87.2a128.5 128.5 0 0 1-16.9-1 27.45 27.45 0 0 1 3.9-1c3.4-.3 7.8-.5 13-.5a119.06 119.06 0 0 1 13.1.6 27.45 27.45 0 0 1 3.9 1 133.1 133.1 0 0 1-17 .9zm5.8-27.7v.1c-.3.2-1.4.7-5.2 1a1.62 1.62 0 0 0-1.4 1.6 1.52 1.52 0 0 0 1.5 1.4h.1c2.5-.2 4.9-.5 6.3-1.3l2.7 5.5a28.88 28.88 0 0 1-7 1.2 1.62 1.62 0 0 0-1.4 1.6 1.52 1.52 0 0 0 1.5 1.4h.1a30.45 30.45 0 0 0 8-1.4l2 4.1a1.42 1.42 0 0 0-.9.8c-.6.3-2.6 1-7.4 1.3a1.62 1.62 0 0 0-1.4 1.6 1.52 1.52 0 0 0 1.5 1.4h.1c6.1-.5 8.5-1.4 9.4-2.3l2.5 5.2-1.2-.2a14.92 14.92 0 0 0-2.1-.2 77.25 77.25 0 0 0-13.6-1.2 68.76 68.76 0 0 0-13.6 1.2c-.7.1-1.5.1-2.1.2l-1.1.1 17.2-34.4 5.5 11.3z"/></svg>