<svg viewBox="0 0 314 314" xmlns="http://www.w3.org/2000/svg"><path fill="#d2d5e4" d="M53.73 86.44l1.1 8.9 2.4 19.4 5.1 41 13.5 5.1-7.1 2.2-3.6 7.2 3.5 39.6 7.2 3.2-5.9 3.2 3.2 24.6 17.8 13.4 18.9-8.2 17.1 4.3 35.7-13.1 20.4 6.9 15.7-4.2a106.93 106.93 0 0 1 17.8-3.1l37.2-3 4.8-1.3c-5.7-7.6-6.5-15.1-6.4-24.6l.1-10.4-1.2-32-11-6.5 5.8-5.5-2.1-12.7-2.9-42.2-14.8-1.1 13-5-1.6-21.5-6.4-1.5 5.5-3.5-.7-15-30.6 4.3-3.6 8.7-11.4-9.4-22.8 3.4-23-7.9-1.3-1-59.5 13.5-3.6 12.3-11.3-12.1-15.7 1.3z"/><path fill="#2a2f5a" d="M90.83 255.84l-19-14.3-3.4-26.2 4.1-2.2-5.2-2.3-3.7-40.9 4-8.2 3.5-1.1-10.2-3.8-8.7-70.3-.8-23.8 17.8-1.4 10 10.7 3.1-10.6 61.3-13.8 1.6 1.3 22.4 7.7 23.1-3.4 10.3 8.5 3.1-7.6 33.1-4.7.8 17.5-3.2 2.1 4 .9 1.8 23.7-7.8 3 9.4.7 3 43.4 2.3 13.4-5 4.7 10 5.9 1.2 32.8-.1 10.5c-.1 10 .9 16.7 6.1 23.7l1.3 1.8-7.2 1.9-37.2 3a103.27 103.27 0 0 0-17.5 3l-16.2 4.3-20.3-6.9-35.6 13-17-4.3-19.2 8.3zm-16.2-15.9l16.6 12.5 18.6-8 17.1 4.3 35.7-13.1 20.5 7 15.3-4.1a100.75 100.75 0 0 1 18.1-3.1l37.1-3 2.6-.7c-4.6-7.1-5.5-14.2-5.4-23.8l.1-10.4-1.3-31-12-7.1 6.7-6.3-2-12.1-2.8-40.9-20.2-1.5 18.2-7-1.5-19.3-8.7-2.1 7.8-4.9-.6-12.5-28.1 4-4 9.7-12.4-10.2-22.5 3.4-23.6-8.1-.9-.7-58.2 13-4 13.9-12.7-13.4-13.6 1.1.7 20.9 8.4 68.3 16.8 6.3-10.7 3.3-3.1 6.3 3.4 38.3 9.2 4.1-7.7 4.2 3.1 22.7z"/><path fill="#eb5c2c" d="M144.13 173.44l-56.3 11.7 2.9 14.1 5 24.1a2.05 2.05 0 0 0 2.4 1.6l52.3-10.8a2.05 2.05 0 0 0 1.6-2.4l-5-24.1-2.9-14.2z"/><path fill="#fff" d="M143.93 174.44l-4.5.9 2.4 11.5-46.5 9.7-2.4-11.5-4.5.9 8.2 38.5h4.5l-.1-.5 46.5-9.6 3.5-1.9-7.1-38zm-43.9 44.9l-3.8-18.3 19.2-4 .2 1.1.4 2a4.2 4.2 0 0 0 4.9 3.2 4.08 4.08 0 0 0 3.2-4.9l-.4-2-.2-1.1 19.2-4 3.8 18.3z"/><circle cx="175.03" cy="264.44" r="12.1" fill="#eb5c2c"/><path fill="#fff" d="M281.43 57.04c17.6 48.7 12.5 86.4-6.2 123.6-17.5 35-46.5 55.7-46.5 55.7l-12.8-14.1 9-9.4c17.3-24.4 27.4-52.6 27-82.5l-2.3-29.4 31.8-43.9z"/><path fill="#2a2f5a" d="M228.53 238.34l-14.6-16.1 9.9-10.4c17.8-25.1 27-53.3 26.6-81.5l-2.3-29.9 33.8-46.6 1 2.7c16.3 45.2 14.4 83.6-6.2 124.8-17.5 34.9-46.7 56.1-47 56.3l-1.2.7zm-10.5-16l10.9 12c5.4-4.1 29.7-23.9 45-54.4 19.8-39.5 22-76.6 7-119.7l-29.8 41.1 2.2 28.9c.4 29-9 57.8-27.2 83.5l-.1.2-8 8.4z"/><path fill="#eb5c2c" d="M240.23 247.74h-.9l-35.2-43.8.3-1.3a6.54 6.54 0 1 0-7.2 5.8 6.88 6.88 0 0 0 2.5-.2l33.7 42.4 1.1-.5a6.49 6.49 0 1 0 5.7-2.4z"/><path fill="#2a2f5a" d="M246.03 210.64a1.43 1.43 0 0 1-1-.4 1.55 1.55 0 0 1-.2-2.1c46.3-54.4 32.9-121.2 32.8-121.8a1.53 1.53 0 0 1 3-.6c.1.7 3.6 17.4 1.2 41.1-2.2 21.9-9.9 54.2-34.6 83.3a2.08 2.08 0 0 1-1.2.5z"/><circle cx="175.03" cy="264.44" r="4.4" fill="#2a2f5a"/><path fill="#2a2f5a" d="M175.03 270.34h-.7a5.78 5.78 0 0 1-4-2.2 6.12 6.12 0 0 1-1.3-4.3 5.78 5.78 0 0 1 2.2-4 6.12 6.12 0 0 1 4.3-1.3 5.78 5.78 0 0 1 4 2.2 6.12 6.12 0 0 1 1.3 4.3 5.78 5.78 0 0 1-2.2 4 5.46 5.46 0 0 1-3.6 1.3zm0-8.9a2.79 2.79 0 0 0-1.8.6 3.09 3.09 0 0 0-1.1 2 2.63 2.63 0 0 0 .6 2.1 3.09 3.09 0 0 0 2 1.1 2.63 2.63 0 0 0 2.1-.6 3.09 3.09 0 0 0 1.1-2 2.63 2.63 0 0 0-.6-2.1 3.09 3.09 0 0 0-2-1.1.32.32 0 0 1-.3 0zm70.8-12.2a7.49 7.49 0 0 0-5.4-2.9h-.4l-34.2-42.8a2.2 2.2 0 0 0 .1-.8 8.39 8.39 0 0 0-1.7-5.9 7.49 7.49 0 0 0-5.4-2.9 8.39 8.39 0 0 0-5.9 1.7 7.49 7.49 0 0 0-2.9 5.4 8.39 8.39 0 0 0 1.7 5.9 7.49 7.49 0 0 0 5.4 2.9h.9a4.87 4.87 0 0 0 1.2-.1l10.9 13.7-31.6 27.8a11.8 11.8 0 0 0-2-.4 13.36 13.36 0 0 0-10 2.9 13.68 13.68 0 0 0-5 9.1 13.36 13.36 0 0 0 2.9 10 13.68 13.68 0 0 0 9.1 5 7.57 7.57 0 0 0 1.5.1 13.34 13.34 0 0 0 8.5-3l8.9 4a17.75 17.75 0 0 0 7.5 1.6 19.31 19.31 0 0 0 4.2-.5l.2-.1c10.9-2.6 23.8-9.9 24.5-21.6a47.78 47.78 0 0 0-.9-12.5l4.1 5.2a8 8 0 0 0-.5 2.1 8.39 8.39 0 0 0 1.7 5.9 7.49 7.49 0 0 0 5.4 2.9h.9a7.92 7.92 0 0 0 7.9-7.1 7.28 7.28 0 0 0-1.6-5.6zm-48.4-42.4a5.2 5.2 0 0 1-3.4-1.8 4.83 4.83 0 0 1-1.1-3.7 5 5 0 0 1 1.8-3.4 5.1 5.1 0 0 1 3.1-1.1h.6a5.2 5.2 0 0 1 3.4 1.8 4.83 4.83 0 0 1 1.1 3.7 5 5 0 0 1-1.8 3.4 4.83 4.83 0 0 1-3.7 1.1zm-11.8 58.7a10.58 10.58 0 0 1-11.7 9.4 10.38 10.38 0 0 1-7.1-3.9 10.5 10.5 0 0 1-2.3-7.8 10.38 10.38 0 0 1 3.9-7.1 10.6 10.6 0 0 1 6.6-2.3 4.87 4.87 0 0 1 1.2.1 10.5 10.5 0 0 1 9.4 11.6zm36.8-13.7c-.6 9.4-11.6 16.2-22.2 18.8h-.2a15 15 0 0 1-9.8-.9l-2.3-1a9.36 9.36 0 0 0 .4-1.6l34.1-22.5a31.94 31.94 0 0 1 0 7.2zm-9.5-29.6l-.6-.8-10.1-12.8a5.55 5.55 0 0 0 .8-.6 6.73 6.73 0 0 0 1.4-1.5l32.2 40.1a8.39 8.39 0 0 0-2.8 1.8l-20.9-26.2zm31.6 32.5a5 5 0 0 1-5.5 4.4 5.2 5.2 0 0 1-3.4-1.8 4.83 4.83 0 0 1-1.1-3.7 5.07 5.07 0 0 1 5-4.5h.5a5.2 5.2 0 0 1 3.4 1.8 4.79 4.79 0 0 1 1.1 3.8zm-53.6-159.7s.9-.4 2.4-.9v-2.4l1.9 1.8a37.65 37.65 0 0 1 5-.7l2.6-.1-1.2-2.6 4.2 2.6c3.7.1 7.1.3 7.1.3s-6.4-6.8-13.4-7.1c-9.6-.4-13.5 2.9-13.5 2.9s-4.3-6.5-10.1-9.6c-7.2-3.8-16.5.1-16.5.1s3.4 1.3 7.2 3l1.4-2.1.8 3.1a24.68 24.68 0 0 1 4.4 2.3l1.6 1.1.5-2.7 1.3 3.8 2.6 3.8a28.62 28.62 0 0 0-17-1l-10.4 11.4s2.9-.9 6.9-1.9l.5-3.2 1.2 2.8c2.2-.5 4.5-.9 6.8-1.2l-.4-3.2 2.6 2.9a3.4 3.4 0 0 0 1-.1c1.6-.1 3-.1 4.4-.1l-.8-3 3.3 3.1c2.2 0 4.1.1 5.3.2l-.4 2.3-2.1-1.4-.6 3.9-2.5-1.7-.7 6.4-3-2 .3 7-3.7-1.7 1.1 7.2-4.2-2.1 1.6 8-3.8-.9 2.6 7.1-2.9-.2 3.6 6.3-3 .1 3.6 5-2.8.1 3 4.5 3.7-.1 2.3-4.8-3 .1 1.2-5.1-2.1.1 2.1-5.7-2.6-.2 3.4-5-2.7-.7 4-4.5-2.4-1.2 5.3-4.2-2.4-1.2 4.9-3.2-3.1-2.1 5.7-2.8-1.8-1.3 3.5-2-1.7-1.2 2.5-1.2c.4.5.9 1.1 1.3 1.7l1.8-.4-1.1 1.7a36.19 36.19 0 0 1 2.4 5.9l2 .4-1.4 1.8a24.09 24.09 0 0 1 3 11 24.34 24.34 0 0 0 3.2-8.4 15.64 15.64 0 0 0-3.1-10.8 27.75 27.75 0 0 1 3.2 1.1l3.1-1.3-1.7 1.9a39.13 39.13 0 0 1 10.4 7.2l2.7-.9-1 2.6c5.1 5.3 6.5 7.4 6.8 8.2-.5-2.4-2.8-13.1-7.4-17.7-7.2-7.1-18.8-8.9-18.8-8.9z"/><path fill="#fff" d="M92.63 121.54l-.1-.1a33.82 33.82 0 0 0-26.9-12.9c-18.2 0-33 13.7-33 30.4v7.4a1.93 1.93 0 0 0 .3 1c1.3 1.7 4.4 6.6 4 9.7a.6.6 0 0 1-.3.6c-.8.3-3.1-.5-4.6-1.5a1.57 1.57 0 0 0-2.4 1.1l-2.8 16.2a1.57 1.57 0 0 0 .4 1.3 1.43 1.43 0 0 0 1.2.6l23.3-.1h7.5a1.5 1.5 0 0 0 1.5-1.1l2.3-7.3h4.4c9.3 0 31 0 31-27.7a28.62 28.62 0 0 0-5.8-17.6z"/><path fill="#2a2f5a" d="M92.63 121.54l-.1-.1a33.82 33.82 0 0 0-26.9-12.9c-18.2 0-33 13.7-33 30.4v7.4a1.93 1.93 0 0 0 .3 1c1.3 1.7 4.4 6.6 4 9.7a.6.6 0 0 1-.3.6c-.8.3-3.1-.5-4.6-1.5a1.57 1.57 0 0 0-2.4 1.1l-2.8 16.2a1.57 1.57 0 0 0 .4 1.3 1.43 1.43 0 0 0 1.2.6l23.3-.1h7.5a1.5 1.5 0 0 0 1.5-1.1l2.3-7.3h4.4c9.3 0 31 0 31-27.7a28.62 28.62 0 0 0-5.8-17.6zm-25.1 42h-3.3c.7-1.3 2.9-4.1 8.6-3.9a1.55 1.55 0 0 0 .1-3.1c-9.6-.3-11.9 6.3-12 6.6l-.3.8a1.74 1.74 0 0 0-.6 1.2v.4l-2.1 6.4h-4.3l1-4.2a1.59 1.59 0 0 0-3.1-.7l-1.1 4.9h-4.9l1-4.2a1.59 1.59 0 0 0-3.1-.7l-1.1 4.9h-5l1-4.3a1.59 1.59 0 0 0-3.1-.7l-1.1 5h-3.8l2.1-12.2c1.6.7 3.9 1.4 5.6.6a3.81 3.81 0 0 0 2.1-3c.6-4.4-3.1-9.9-4.3-11.6v-6.9c0-15 13.4-27.2 29.8-27.2a31.06 31.06 0 0 1 23.6 10.6l-4.8 6.1a1.74 1.74 0 0 0-.3 1.4l1.3 4.6-3.7 3.2a1.58 1.58 0 0 0-.2 2.2 1.46 1.46 0 0 0 1.2.5 1.28 1.28 0 0 0 1-.4l4.4-3.8a1.42 1.42 0 0 0 .5-1.6l-1.4-4.8 3.8-4.8a25.32 25.32 0 0 1 4.2 14c.1 21.7-13.2 24.7-27.7 24.7zm-15.2-25.3a8.7 8.7 0 1 0 8.7 8.7 8.71 8.71 0 0 0-8.7-8.7zm0 14.3a5.48 5.48 0 0 1-5.5-5.5 5.5 5.5 0 0 1 11 0 5.48 5.48 0 0 1-5.5 5.5z"/><path fill="#fff" d="M213.93 246.14a1.52 1.52 0 0 1-1.5-1.4c-.6-7.7-5.7-11-6-11.2a1.58 1.58 0 0 1-.5-2.1 1.55 1.55 0 0 1 2.1-.5 17.55 17.55 0 0 1 7.4 13.5 1.54 1.54 0 0 1-1.4 1.6l-.1.1zm-6.7 5a1.52 1.52 0 0 1-1.5-1.4c-.6-7.5-5.7-9.3-6-9.4a1.52 1.52 0 1 1 .9-2.9c.3.1 7.3 2.4 8 12a1.54 1.54 0 0 1-1.4 1.6c.1.1 0 .1 0 .1zm-8.3 3.6a1.54 1.54 0 0 1-1.5-1.5 8.26 8.26 0 0 0-4.2-7 1.48 1.48 0 0 1 1.4-2.6c.2.1 5.8 3.2 5.8 9.7a1.45 1.45 0 0 1-1.5 1.4z"/><path fill="#2a2f5a" d="M45.33 187.34a6.24 6.24 0 0 0-3.9-4.4 6.32 6.32 0 0 0-5.8 1.2 12.08 12.08 0 0 0-3.9 5.6 11.39 11.39 0 0 0-.3 6.8 6.24 6.24 0 0 0 3.9 4.4 5.08 5.08 0 0 0 1.7.3 6.7 6.7 0 0 0 4.1-1.5 12.08 12.08 0 0 0 3.9-5.6 11.36 11.36 0 0 0 .3-6.8zm-3.9-1.6l-.1-.1a.1.1 0 0 1 .1.1zm1.3 7.7a8.89 8.89 0 0 1-3 4.4 3.66 3.66 0 0 1-3.5.8 3.74 3.74 0 0 1-2.3-2.8 8.78 8.78 0 0 1 .2-5.3 8.89 8.89 0 0 1 3-4.4 4.71 4.71 0 0 1 2.6-1 2.77 2.77 0 0 1 .9.1l.6.3a1.2 1.2 0 0 0-1.6.6 9.08 9.08 0 0 1-.8 1.7 1.25 1.25 0 0 0-1.3.4 1.39 1.39 0 0 0 .2 1.8l.1.1-1 2.7a1.11 1.11 0 0 0-1 .5 1.39 1.39 0 0 0 .2 1.8h.1a1.27 1.27 0 0 0-.1.6 1.33 1.33 0 0 0 1 1.5h.2a1.2 1.2 0 0 0 1.2-.9h.2a2 2 0 0 0 .5-.1 1.25 1.25 0 0 0 .7-1.6 1 1 0 0 0-.8-.7 26 26 0 0 1 1-2.5h.2a2 2 0 0 0 .5-.1 1.25 1.25 0 0 0 .7-1.6 1 1 0 0 0-.5-.6 12.8 12.8 0 0 1 .8-1.8 1.19 1.19 0 0 0-.2-1.3 4.32 4.32 0 0 1 1.2 2.1 7.42 7.42 0 0 1 0 5.3zm102.4 68.2a6.26 6.26 0 0 0-3.7-4.6 12.2 12.2 0 0 0-13 2 5.92 5.92 0 0 0 1.6 10.1 10.58 10.58 0 0 0 4.8 1 13.55 13.55 0 0 0 2-.2c5.2-.8 8.9-4.5 8.3-8.3zm-2.5 1a1.24 1.24 0 0 0-1.3-1.2c-.1 0-.8 0-1.9.1a1.17 1.17 0 0 0-1-.9 1.33 1.33 0 0 0-1.5 1v.2l-2.8.3a1.16 1.16 0 0 0-.8-.6 1.33 1.33 0 0 0-1.5 1v.1l-.6.2a1.31 1.31 0 0 0-.9 1.5 1.4 1.4 0 0 0 1.2.9h.3a1 1 0 0 0 .4.6 1.14 1.14 0 0 0 .8.3 1.09 1.09 0 0 0 .9-.4 1.31 1.31 0 0 0 .3-1l2.7-.3a1 1 0 0 0 .4.6 1.14 1.14 0 0 0 .8.3 1.2 1.2 0 0 0 1.2-1.1c1.1-.1 1.9-.1 2-.1a1.17 1.17 0 0 0 1.1-.8c-.6 2-3 3.8-6.2 4.3a8.54 8.54 0 0 1-5.3-.7 3.6 3.6 0 0 1-2.3-2.7 3.67 3.67 0 0 1 1.4-3.3 9.26 9.26 0 0 1 4.9-2.2 9.83 9.83 0 0 1 5.3.7 3.6 3.6 0 0 1 2.3 2.7.33.33 0 0 1 .1.5zm-18.2 12.7a10.76 10.76 0 0 0-4.5-5.1 6 6 0 0 0-5.9-.5c-3.6 1.7-4.6 6.8-2.3 11.6a10.76 10.76 0 0 0 4.5 5.1 6.94 6.94 0 0 0 3.5 1 5.93 5.93 0 0 0 2.3-.5c3.7-1.6 4.7-6.7 2.4-11.6zm-3.4 9.4a4 4 0 0 1-3.6-.4 9.2 9.2 0 0 1-3.5-4c-1.6-3.5-1.1-7.2 1.1-8.3a1.42 1.42 0 0 1 .6-.2 1.31 1.31 0 0 0-.8 1.6c0 .1.3.8.6 1.8a1.14 1.14 0 0 0-.6 1.2 1.19 1.19 0 0 0 1.2 1.1h.3a20.29 20.29 0 0 0 1.1 2.6 1.28 1.28 0 0 0-.4 1 1.19 1.19 0 0 0 1.2 1.1h.2l.3.6a1.15 1.15 0 0 0 1.1.6 1.85 1.85 0 0 0 .7-.2 1.28 1.28 0 0 0 .4-1.7 2.2 2.2 0 0 0 .5-.6 1.32 1.32 0 0 0-.6-1.7 1.39 1.39 0 0 0-1.1 0l-1.1-2.5a2.2 2.2 0 0 0 .5-.6 1.32 1.32 0 0 0-.6-1.7 2.2 2.2 0 0 0-.8-.1c-.4-1.1-.7-1.8-.7-1.9a1.15 1.15 0 0 0-1-.8h.1a4.35 4.35 0 0 1 2.3.7 9.2 9.2 0 0 1 3.5 4c1.9 3.5 1.4 7.3-.9 8.4zm-59.4-53.3c-5-2-10-.7-11.4 3a6.21 6.21 0 0 0 .9 5.8 11.5 11.5 0 0 0 5.4 4.2 12.54 12.54 0 0 0 4.6.9 15 15 0 0 0 2.2-.2 6 6 0 0 0 4.6-3.6c1.5-3.7-1.3-8.1-6.3-10.1zm4 9.1a3.72 3.72 0 0 1-2.9 2.1 9 9 0 0 1-5.3-.5 8.79 8.79 0 0 1-4.2-3.3 3.85 3.85 0 0 1-.6-3.5l.3-.6a1.31 1.31 0 0 0 .5 1.7c.1 0 .7.4 1.7.9a1.31 1.31 0 0 0 .4 1.3 1.14 1.14 0 0 0 .8.3 1.09 1.09 0 0 0 .9-.4l.1-.1c.8.4 1.7.8 2.6 1.2a1.28 1.28 0 0 0 .4 1 1.14 1.14 0 0 0 .8.3 1.09 1.09 0 0 0 .9-.4l.1-.1.6.2h.3a1.2 1.2 0 0 0 1.2-.9 1.24 1.24 0 0 0-.8-1.5 2.08 2.08 0 0 0 0-.8 1.23 1.23 0 0 0-1.6-.8 1.39 1.39 0 0 0-.8.7 27.18 27.18 0 0 1-2.5-1.1 2.08 2.08 0 0 0 0-.8 1.23 1.23 0 0 0-1.6-.8 1 1 0 0 0-.6.5c-1-.5-1.7-.9-1.8-.9a1.23 1.23 0 0 0-1.3.1 5.9 5.9 0 0 1 3.9-1.3 9.22 9.22 0 0 1 3.6.7c3.6 1.5 5.8 4.6 4.9 6.8z"/><path fill="#eb5c2c" d="M131.13 62.44l-12-16.1 7.9-18.5 20-2.3 12 16.1-8 18.4zm15.9-36.9l-3.2 7.4m-16-4.4l4.1 5.8m-12.4 12.1l7.7-1.1m7.3 9.2l-3.4 7.9m15.1-8.9l5.3 6.7m-.6-17.7l8.1-.9"/><path fill="#2a2f5a" d="M101.83 118.94a14.07 14.07 0 0 1-.3-2.8 9.7 9.7 0 0 1 .1-1.7 1.513 1.513 0 0 0-3-.4 14.77 14.77 0 0 0-.1 2.1 20.41 20.41 0 0 0 .3 3.4 1.51 1.51 0 0 0 1.5 1.2h.3a1.65 1.65 0 0 0 1.2-1.8zm3.9 9.6l-1.8-1.4-.2-1.5a1.513 1.513 0 1 0-3 .4l.3 2.1a1.35 1.35 0 0 0 .5.9 22.26 22.26 0 0 0 2.4 1.9 1.61 1.61 0 0 0 .9.3 1.43 1.43 0 0 0 1.2-.6 1.47 1.47 0 0 0-.3-2.1zm31-63.6a1.55 1.55 0 0 0 1.3 1.7h.2a1.6 1.6 0 0 0 1.5-1.3l.3-2.1v-.4l12.1-1.4 8.6-20-13-17.5-21.7 2.5-8.6 20 13 17.5 6.5-.8-.2 1.8zm14.1-8l-2.8-3.6 4-9.4 4.6-.5zm-5.6-4.8l-10.2 1.2-6.1-8.2 4-9.4 10.2-1.2 6.1 8.2zm2.1-23.6l8.9 11.9-4.6.5-6.1-8.2 1.8-4.2zm-2.7-1.2l-1.8 4.3-10.2 1.1-2.6-3.8zm-17.1 3.3l2.7 3.9-4.1 9.4-4.7.6zm3.2 28.8l-8.8-11.9 4.6-.6 6.1 8.2-1.9 4.3zm4.6-3.1l10.2-1.2 2.9 3.7-15 1.8 1.9-4.3zm68.5 91.3a1.61 1.61 0 0 0 1.1.5 1.28 1.28 0 0 0 1-.4 1.45 1.45 0 0 0 .1-2.1 43.34 43.34 0 0 0-3.7-3.6 1.45 1.45 0 0 0-2.1.1 1.54 1.54 0 0 0 .1 2.1 28.82 28.82 0 0 1 3.5 3.4zm-97.7-44.1a20.58 20.58 0 0 0-4.1 3.4 1.45 1.45 0 0 0 .1 2.1 1.28 1.28 0 0 0 1 .4 1.61 1.61 0 0 0 1.1-.5 17.42 17.42 0 0 1 3.5-2.9 1.48 1.48 0 0 0 .4-2.1 1.53 1.53 0 0 0-2-.4zm21 32.3h-.1a37.08 37.08 0 0 1-4.7-.3 1.513 1.513 0 1 0-.4 3 43.61 43.61 0 0 0 5.1.3h.1a1.54 1.54 0 0 0 1.5-1.5 1.47 1.47 0 0 0-1.5-1.5zm-.1-43.5a32.82 32.82 0 0 1-3.8 2.7 1.49 1.49 0 0 0-.6 2 1.56 1.56 0 0 0 1.3.8 1.85 1.85 0 0 0 .7-.2 33 33 0 0 0 4.3-3 1.55 1.55 0 0 0 .2-2.1 1.38 1.38 0 0 0-2.1-.2zm-11.2 41.7a24.36 24.36 0 0 1-4.4-1.9 1.5 1.5 0 0 0-1.3 2.7 32.59 32.59 0 0 0 4.8 2 .9.9 0 0 0 .5.1 1.5 1.5 0 0 0 1.4-1 1.54 1.54 0 0 0-1-1.9zm1.2-36l-1.4.6-3.2 1.5a1.5 1.5 0 0 0-.7 2 1.69 1.69 0 0 0 1.4.9 1.27 1.27 0 0 0 .6-.1c1-.5 2.1-1 3.1-1.4l1.4-.6a1.4 1.4 0 0 0 .7-2 1.38 1.38 0 0 0-1.9-.9zm74.3 84.3a42.33 42.33 0 0 1-4.2 2.5 1.49 1.49 0 0 0-.6 2 1.56 1.56 0 0 0 1.3.8 1.85 1.85 0 0 0 .7-.2 46.37 46.37 0 0 0 4.4-2.6 1.48 1.48 0 0 0 .4-2.1 1.41 1.41 0 0 0-2-.4zm-4.3-49.1a1.59 1.59 0 0 0-.7-2 26.67 26.67 0 0 0-4.9-1.8 1.52 1.52 0 0 0-.9 2.9 36.7 36.7 0 0 1 4.5 1.7 1.27 1.27 0 0 0 .6.1 1.69 1.69 0 0 0 1.4-.9zm-6.1 54.4a41.07 41.07 0 0 1-4.6 1.5 1.54 1.54 0 0 0 .4 3 .6.6 0 0 0 .4-.1c1.6-.5 3.3-1 4.9-1.6a1.504 1.504 0 1 0-1.1-2.8zm16.2-48a1.55 1.55 0 0 0-.3-2.1c-1.4-1-2.8-2-4.2-2.9a1.53 1.53 0 0 0-1.6 2.6c1.3.8 2.7 1.8 4.1 2.7a1.61 1.61 0 0 0 .9.3 1.38 1.38 0 0 0 1.1-.6zm-22.9-11.5c-1.6-.1-3.3-.2-5.1-.2a1.5 1.5 0 0 0 0 3c1.7 0 3.4.1 4.9.2h.1a1.52 1.52 0 0 0 1.5-1.4 1.62 1.62 0 0 0-1.4-1.6zm34.3 24.8a1.47 1.47 0 0 0-2.9.5 37.26 37.26 0 0 1 .4 4.7v.1a1.5 1.5 0 0 0 3 0 45.34 45.34 0 0 0-.5-5.3zm-6.5 21.5a1.55 1.55 0 0 0-2.1.2 36.06 36.06 0 0 1-3.3 3.5 1.55 1.55 0 0 0-.1 2.1 1.61 1.61 0 0 0 1.1.5 1.28 1.28 0 0 0 1-.4 42.72 42.72 0 0 0 3.6-3.8 1.39 1.39 0 0 0-.2-2.1zm4.9-10.8a1.49 1.49 0 0 0-1.8 1.1 23.17 23.17 0 0 1-1.6 4.4 1.53 1.53 0 0 0 .7 2 1.27 1.27 0 0 0 .6.1 1.51 1.51 0 0 0 1.4-.9 24.25 24.25 0 0 0 1.8-4.9 1.49 1.49 0 0 0-1.1-1.8zm-48.8 27.8h-.3l-4.9.2a1.42 1.42 0 0 0-1.4 1.6 1.45 1.45 0 0 0 1.5 1.4h.1l4.8-.2a1.54 1.54 0 0 0 1.6-1.4 1.62 1.62 0 0 0-1.4-1.6zm-17.7-56.5a1.58 1.58 0 0 0-1.9-1 35.93 35.93 0 0 1-4.7 1.2 1.58 1.58 0 0 0-1.2 1.8 1.51 1.51 0 0 0 1.5 1.2h.3a40.71 40.71 0 0 0 5-1.3 1.54 1.54 0 0 0 1-1.9zm-6.5-45.9a26.4 26.4 0 0 0 2.5-4.7 1.523 1.523 0 0 0-2.8-1.2 23.22 23.22 0 0 1-2.2 4.1 1.48 1.48 0 0 0 .4 2.1 1.33 1.33 0 0 0 .8.3 1.37 1.37 0 0 0 1.3-.6zm35.8 101.7a41.94 41.94 0 0 1-4.8.6 1.62 1.62 0 0 0-1.4 1.6 1.52 1.52 0 0 0 1.5 1.4h.1a44.62 44.62 0 0 0 5.1-.7 1.41 1.41 0 0 0 1.2-1.7 1.46 1.46 0 0 0-1.7-1.2zm-7.8-62.7c-1.7.1-3.4.3-5.1.5a1.55 1.55 0 0 0-1.3 1.7 1.43 1.43 0 0 0 1.5 1.3h.2c1.6-.2 3.2-.4 4.9-.5a1.62 1.62 0 0 0 1.4-1.6 1.48 1.48 0 0 0-1.6-1.4zm-10.3 2.9a1.49 1.49 0 0 0-1.8-1.1c-1.9.5-3.6 1-5 1.5a1.51 1.51 0 0 0-.8 2 1.42 1.42 0 0 0 1.4.9 1.27 1.27 0 0 0 .6-.1 31.83 31.83 0 0 1 4.6-1.4 1.51 1.51 0 0 0 1-1.8zm-15.8-59l-.6 4.9 1.5.2 1.5.1.6-4.9a1.55 1.55 0 0 0-1.3-1.7 1.72 1.72 0 0 0-1.7 1.4z"/><path fill="#fff" d="M88.83 38.34l-11.9 24.2 7.4 15.7 21.9-44.1zm17.2-2l-19.8 40.5 42.4-4.8z"/><path fill="#2a2f5a" d="M131.13 73.24l-25.3-40.6-18.1 4.4-12.4 25.5 7.7 16.3.7-.3v.1zm-30.4-22.6l.1-.1 21.3 18.2-27.5-5.8zm-8.1 9.6l-5.3-8.1 9.8-1.2zm.7 5.5l27.4 5.7-32 3.6zm12.9-26.4l16.2 25.6-20.2-17.2zm-1.8-3.3l-5.7 11.5-5.7-8.8zm-14.6 3.6h.2l5.6 8.6-10.6 1.3zm-11.2 23l5.1-10.4 5.9 9-10.9 1.8zm1.5 3.1l10.7-1.7-5.9 12z"/><path fill="#f8fafd" d="M144.83 43.74a1.43 1.43 0 0 1-1.2-.6l-3.8-5.1a1.5 1.5 0 0 1 2.4-1.8l3.8 5.1a1.46 1.46 0 0 1-.3 2.1 1.61 1.61 0 0 1-.9.3z"/><path fill="#2a2f5a" d="M118.63 199.14l-.1 2.7 4-.8-1.2-2.4a1.77 1.77 0 0 0 .3-1.6 2.04 2.04 0 1 0-4 .8 3.25 3.25 0 0 0 1 1.3zm-7.1 4.1l-10.1 2.1a1.02 1.02 0 1 0 .4 2l10.1-2.1a1 1 0 0 0 .8-1.2 1.1 1.1 0 0 0-1.2-.8zm-.5-12.4l14.1-2.9a1.02 1.02 0 1 0-.4-2l-14.1 2.9a1 1 0 0 0-.8 1.2 1 1 0 0 0 1.2.8zm41 20.8l-5-24.1-2.9-14.1-56.3 11.7 2.9 14.1 5 24.1a2.05 2.05 0 0 0 2.4 1.6l52.3-10.8a2.21 2.21 0 0 0 1.6-2.5zm-9.5-35.8l2.1 10.1-2 .4-2.1-10.1zm-4 .9l.4 2-5 1a1.02 1.02 0 1 0 .4 2l5-1 1.2 6-16.1 3.3-12.1 2.5-16.1 3.3-1.2-6 11.1-2.3a1.02 1.02 0 1 0-.4-2l-11.1 2.3-.4-2 44.3-9.1zm-12.4 21.4l-.4-2 16.1-3.3 1.2 6-13.1 2.7a1.02 1.02 0 1 0 .4 2l13.1-2.7.8 4-5 1a1.02 1.02 0 0 0 .4 2l5-1 .4 2-44.2 9.2-.8-4 21.1-4.4a1.02 1.02 0 1 0-.4-2l-21.1 4.4-2-10.1 16.1-3.3.4 2a6.13 6.13 0 1 0 12-2.5zm-11.3-4l8-1.7.4 2 .4 2 .4 2a4.14 4.14 0 0 1-8.1 1.7l-.4-2-.4-2zm-24.6-7.4l2-.4 2.1 10.1-2 .4zm7.5 36.2l-5-24.1 20.1-4.2.4 2-18.1 3.7 4.2 20.1 48.3-10-4.2-20.1-18.1 3.7-.4-2 20.1-4.2 5 24.1z"/></svg>