<svg viewBox="0 0 314 314" xmlns="http://www.w3.org/2000/svg"><path fill="#8a94aa" d="M134.53 41.94l4.4-5 2.9 5h3.4l-4.3-7 6.3-6.9h-3.7l-4 4.6-2.7-4.6h-3.4l4 6.7-6.5 7.2h3.6zm-111.7 141.1l-3-10.6h-3.2l4.4 13.8-.5.8c-1.2 2.2-2.4 3.4-4 3.4a6.88 6.88 0 0 1-1.3-.2l-.4 2.6a6 6 0 0 0 2 .3c2.1 0 4.2-1.2 6.3-4.8l9-15.9h-3.5l-5.8 10.6zm286.9-24.6l-13.7-4.9v4.1h-135.1V4.84h-2v152.8H6.63v2h152.3v136.3h2v-136.3h135.1v3.4z"/><path fill="#e5e6f2" d="M265.03 170.94a105.71 105.71 0 0 1-27.8 61.2 108.81 108.81 0 0 1-90.9 34c-59.4-6.3-102.7-58.9-96.6-117.6s59.2-101.3 118.7-95.1 102.7 58.8 96.6 117.5z"/><path fill="#8a94aa" d="M166.63 130.84a1.24 1.24 0 0 0 1.2 1.3c2 0 4 .1 6 .2a1.16 1.16 0 0 0 1.2-1.2 1.24 1.24 0 0 0-1.2-1.3l-6-.2a1.15 1.15 0 0 0-1.2 1.2zm33.3.5c-2-.2-4-.4-6-.5a1.204 1.204 0 1 0-.2 2.4l6 .5h.1a1.2 1.2 0 0 0 .1-2.4zm-59.3-.3a1.22 1.22 0 0 0 1.2 1.2l6-.2a1.25 1.25 0 1 0-.1-2.5c-2 0-4 .1-6 .2a1.23 1.23 0 0 0-1.1 1.3zm13-.3a1.22 1.22 0 0 0 1.2 1.2h6a1.22 1.22 0 0 0 1.2-1.2 1.31 1.31 0 0 0-1.2-1.3h-6a1.39 1.39 0 0 0-1.2 1.3zm-38.9 2a1.28 1.28 0 0 0 1.2 1.1h.1c2-.2 3.9-.4 6-.5a1.204 1.204 0 0 0-.2-2.4l-6 .5a1.11 1.11 0 0 0-1.1 1.3zm-42.9 7.5a1.23 1.23 0 0 0-1.6-.8c-2.1.6-4 1.3-5.8 1.9a1.22 1.22 0 0 0-.7 1.6 1.3 1.3 0 0 0 1.2.8.6.6 0 0 0 .4-.1c1.7-.6 3.6-1.3 5.6-1.9a1.16 1.16 0 0 0 .9-1.5zm-18.2 9.7a1.14 1.14 0 0 0 .8-.3 21 21 0 0 1 4.8-3.1 1.253 1.253 0 1 0-1.2-2.2 24.7 24.7 0 0 0-5.2 3.5 1.27 1.27 0 0 0-.1 1.8 1.9 1.9 0 0 0 .9.3zm74-18.2a1.22 1.22 0 0 0 1.2 1.2h.1l6-.3a1.25 1.25 0 0 0-.1-2.5l-6 .3a1.24 1.24 0 0 0-1.2 1.3zm52-.5a1.24 1.24 0 0 0 1.2 1.3l6 .3h.1a1.16 1.16 0 0 0 1.2-1.2 1.24 1.24 0 0 0-1.2-1.3l-6-.3a1.24 1.24 0 0 0-1.3 1.2zm-102.2 8.7h.3c1.8-.5 3.8-.9 5.8-1.3a1.275 1.275 0 0 0-.5-2.5c-2 .4-4 .9-5.9 1.4a1.18 1.18 0 0 0-.9 1.5 1.11 1.11 0 0 0 1.2.9zm128.1-6.8a1.24 1.24 0 0 0 1.1 1.4c2 .2 4 .5 5.9.7h.2a1.2 1.2 0 0 0 1.2-1.1 1.24 1.24 0 0 0-1.1-1.4c-2-.3-3.9-.5-6-.7a1.38 1.38 0 0 0-1.3 1.1zm20.3 1.7c-1.2-.2-2.4-.4-3.7-.6v-.4a1.24 1.24 0 0 0-1.4-1.1 1.28 1.28 0 0 0-1.1 1.2 1.19 1.19 0 0 0-1.2 1 1.25 1.25 0 0 0 1 1.4.37.37 0 0 1 .3.1c.1 1.2.2 2.4.2 3.6a1.22 1.22 0 0 0 1.2 1.2h.1a1.24 1.24 0 0 0 1.2-1.3c-.1-1-.1-2-.2-3.1l3 .5h.2a1.19 1.19 0 0 0 1.2-1 1 1 0 0 0-.8-1.5zm12.2 5.1h.3a1.2 1.2 0 0 0 1.2-.9 1.18 1.18 0 0 0-.9-1.5c-1.9-.5-3.9-.9-5.9-1.4a1.275 1.275 0 1 0-.5 2.5c2 .4 4 .9 5.8 1.3zm24.8 8.1a23.9 23.9 0 0 0-5.1-3.6 1.253 1.253 0 1 0-1.2 2.2 22.83 22.83 0 0 1 4.6 3.3 1.4 1.4 0 0 0 .9.3 1.09 1.09 0 0 0 .9-.4 1.27 1.27 0 0 0-.1-1.8zm-18.1-6.2c2 .6 3.9 1.3 5.6 1.9a.75.75 0 0 0 .5.1 1.24 1.24 0 0 0 .5-2.4c-1.8-.7-3.7-1.3-5.8-2a1.31 1.31 0 0 0-1.6.8 1.23 1.23 0 0 0 .8 1.6zm-141.6-6.5c1.9-.3 3.9-.5 5.9-.7a1.26 1.26 0 0 0-.3-2.5l-6 .7a1.24 1.24 0 0 0-1.1 1.4 1.28 1.28 0 0 0 1.2 1.1h.3zm154.2 18.2a1.253 1.253 0 1 0-1.2 2.2 22.83 22.83 0 0 1 4.6 3.3 1.4 1.4 0 0 0 .9.3 1.09 1.09 0 0 0 .9-.4 1.27 1.27 0 0 0 0-1.8 24.78 24.78 0 0 0-5.2-3.6zm-26.4-7.3a1.33 1.33 0 0 0 1 1.5c2 .4 4 .9 5.8 1.3h.3a1.2 1.2 0 0 0 1.2-.9 1.18 1.18 0 0 0-.9-1.5c-1.9-.5-3.9-.9-5.9-1.4a1.27 1.27 0 0 0-1.5 1zm-161 2.2c-2.1.6-4 1.3-5.8 1.9a1.22 1.22 0 0 0-.7 1.6 1.3 1.3 0 0 0 1.2.8.6.6 0 0 0 .4-.1c1.7-.6 3.6-1.3 5.6-1.9a1.23 1.23 0 0 0 .8-1.6 1.19 1.19 0 0 0-1.5-.7zm5.9-.3a1.18 1.18 0 0 0 1.2.9h.3c1.8-.5 3.8-.9 5.8-1.3a1.275 1.275 0 0 0-.5-2.5c-2 .4-4 .9-5.9 1.4a1.15 1.15 0 0 0-.9 1.5zm-16.4 6.4a.91.91 0 0 0 .7.3h.1a1.2 1.2 0 0 0 1.2-1.1c.2-2 .4-4 .7-5.9a1.26 1.26 0 1 0-2.5-.3c-.3 1.9-.5 3.9-.7 5.9a1.4 1.4 0 0 0-1.4-.2 24.7 24.7 0 0 0-5.2 3.5 1.27 1.27 0 0 0-.1 1.8 1.09 1.09 0 0 0 .9.4 1.14 1.14 0 0 0 .8-.3 21 21 0 0 1 4.8-3.1 1.2 1.2 0 0 0 .7-1zm121-12.9l6 .3h.1a1.16 1.16 0 0 0 1.2-1.2 1.24 1.24 0 0 0-1.2-1.3l-6-.3a1.24 1.24 0 0 0-1.3 1.2 1.31 1.31 0 0 0 1.2 1.3zm-83.5 2.3a1.17 1.17 0 0 0-1.4-1c-2 .3-4 .6-5.9 1a1.27 1.27 0 0 0-1 1.5 1.19 1.19 0 0 0 1.2 1h.2c1.9-.3 3.9-.7 5.9-1a1.42 1.42 0 0 0 1-1.5zm102.7-3.5c-2-.2-4-.4-6-.5a1.23 1.23 0 0 0-1.3 1.1 1.16 1.16 0 0 0 1.1 1.3l6 .5h.1a1.2 1.2 0 0 0 1.2-1.1 1.38 1.38 0 0 0-1.1-1.3zm-98.2 2.9a1.28 1.28 0 0 0 1.2 1.1h.2c1.9-.3 3.9-.5 5.9-.7a1.26 1.26 0 0 0-.3-2.5l-6 .7a1.17 1.17 0 0 0-1 1.4zm38.8-3.2a1.22 1.22 0 0 0 1.2 1.2l6-.2a1.24 1.24 0 0 0 1.2-1.3 1.18 1.18 0 0 0-1.3-1.2c-2 0-4 .1-6 .2a1.23 1.23 0 0 0-1.1 1.3zm14.3 1h6a1.22 1.22 0 0 0 1.2-1.2 1.31 1.31 0 0 0-1.2-1.3h-6a1.24 1.24 0 0 0-1.2 1.3 1.15 1.15 0 0 0 1.2 1.2zm-27.3-.4a1.22 1.22 0 0 0 1.2 1.2h.1l6-.3a1.25 1.25 0 0 0-.1-2.5l-6 .3a1.38 1.38 0 0 0-1.2 1.3zm-11.7 2.2h.1c2-.2 3.9-.4 6-.5a1.204 1.204 0 0 0-.2-2.4l-6 .5a1.24 1.24 0 0 0-1.1 1.4 1.2 1.2 0 0 0 1.2 1zm90.8.7c2 .2 4 .5 5.9.7h.2a1.2 1.2 0 0 0 1.2-1.1 1.24 1.24 0 0 0-1.1-1.4c-2-.3-3.9-.5-6-.7a1.24 1.24 0 0 0-1.4 1.1 1.4 1.4 0 0 0 1.2 1.4zm-32.9-2.3a1.25 1.25 0 1 0 .1-2.5l-6-.2a1.16 1.16 0 0 0-1.2 1.2 1.24 1.24 0 0 0 1.2 1.3c2 .1 4 .1 5.9.2zm51.8 5.1a1.19 1.19 0 0 0 1.2-1 1.33 1.33 0 0 0-1-1.5c-1.9-.3-3.9-.7-5.9-1a1.22 1.22 0 1 0-.4 2.4c.7.1 1.4.2 2 .3a1.1 1.1 0 0 0-.8 1.2v5.9a1.24 1.24 0 0 0 1.2 1.3 1.16 1.16 0 0 0 1.2-1.2v-6.1a1.39 1.39 0 0 0-.5-1l2.7.5.3.2zm-161.8 45.6c-.5-1.9-.9-3.8-1.3-5.8a1.275 1.275 0 1 0-2.5.5c.4 2 .8 4 1.3 5.9a1.18 1.18 0 0 0 1.2.9h.3a1.15 1.15 0 0 0 1-1.5zm-4.1-24.2a1.24 1.24 0 0 0 1.3-1.2c0-1.4.1-2.9.2-4.4l.1-1.6a1.25 1.25 0 0 0-2.5-.1l-.1 1.6-.2 4.5a1.16 1.16 0 0 0 1.2 1.2zm.8 13a1.24 1.24 0 0 0 1.1-1.4c-.2-1.9-.4-3.9-.5-5.9a1.25 1.25 0 0 0-2.5.1c.1 2 .3 4.1.5 6.1a1.28 1.28 0 0 0 1.2 1.1h.2zm25 50.5a1.273 1.273 0 0 0-1.8 1.8c1.4 1.5 2.9 2.9 4.3 4.3a1.14 1.14 0 0 0 .8.3 1.09 1.09 0 0 0 .9-.4 1.27 1.27 0 0 0-.1-1.8c-1.4-1.4-2.8-2.8-4.1-4.2zm-8.2-9.9a1.22 1.22 0 0 0-2 1.4c1.2 1.6 2.4 3.3 3.7 4.8a1.23 1.23 0 0 0 1 .5 1.14 1.14 0 0 0 .8-.3 1.36 1.36 0 0 0 .2-1.8 41.36 41.36 0 0 1-3.7-4.6zm45.3 33.6c-1.9-.6-3.7-1.4-5.5-2.1a1.235 1.235 0 0 0-.9 2.3c1.9.8 3.8 1.5 5.7 2.2l.4.1a1.3 1.3 0 0 0 1.2-.8 1.53 1.53 0 0 0-.9-1.7zm-27.7-15.1a1.28 1.28 0 1 0-1.6 2c1.6 1.2 3.2 2.5 4.9 3.6a1.85 1.85 0 0 0 .7.2 1.23 1.23 0 0 0 1-.5 1.25 1.25 0 0 0-.3-1.7c-1.5-1.2-3.1-2.4-4.7-3.6zm-26.2-123a.6.6 0 0 0 .4.1 1.3 1.3 0 0 0 1.2-.8c.7-1.9 1.4-3.7 2.2-5.5a1.21 1.21 0 1 0-2.2-1c-.8 1.8-1.6 3.7-2.3 5.6a1.25 1.25 0 0 0 .7 1.6zm52.4-54.8a.9.9 0 0 0 .5-.1c1.8-.7 3.7-1.4 5.6-2a1.265 1.265 0 1 0-.8-2.4 55.39 55.39 0 0 0-5.7 2.1 1.25 1.25 0 0 0-.7 1.6 1.08 1.08 0 0 0 1.1.8zm-11.7 5.6a1.42 1.42 0 0 0 .6-.2c1.7-1 3.4-1.9 5.2-2.8a1.32 1.32 0 0 0 .6-1.7 1.29 1.29 0 0 0-1.7-.6c-1.8.9-3.6 1.8-5.4 2.8a1.28 1.28 0 0 0-.5 1.7 1.24 1.24 0 0 0 1.2.8zm24-9.6h.3c1.9-.5 3.8-.9 5.8-1.3a.52.52 0 0 0 .4-.2 1.21 1.21 0 0 0-.3 1.3 1.3 1.3 0 0 0 1.2.8.6.6 0 0 0 .4-.1 51.83 51.83 0 0 1 5.6-1.7 1.3 1.3 0 0 0 .9-1.4l4.5-.5h.1a1.15 1.15 0 0 0 1.1.6h.2c1.3-.2 2.7-.3 4-.4l.2.1.6.1h.1c1.9.1 3.8.3 5.7.5h.1a1.56 1.56 0 0 0 .8.6c1.9.4 3.9.9 5.7 1.4a2.27 2.27 0 0 0 .4.1 1.26 1.26 0 0 0 1.2-.9c1.5.3 3 .6 4.4.9h.3a1.21 1.21 0 0 0-.5.5 1.15 1.15 0 0 0 .7 1.6 52 52 0 0 1 5.3 2.6 1.42 1.42 0 0 0 .6.2 1.25 1.25 0 0 0 1.1-.6 1.28 1.28 0 0 0-.5-1.7 56 56 0 0 0-5.5-2.7.9.9 0 0 0-.5-.1 1.16 1.16 0 0 0 .5-.7 1.18 1.18 0 0 0-.9-1.5 56 56 0 0 0-5.9-1.2 1.11 1.11 0 0 0-1.3.8c-1.5-.4-2.9-.8-4.4-1.1h-.3a1.6 1.6 0 0 0-.9-.7 8.08 8.08 0 0 0-1.6-.1 1.28 1.28 0 0 0-1.2-1.1 21.75 21.75 0 0 0-2.6.1 1.1 1.1 0 0 0-1 .6 40.68 40.68 0 0 0-4.9.5 1.14 1.14 0 0 0-1.2-.6l-6 .6a1.24 1.24 0 0 0-1.1 1.4l.1.3c-1.6.4-3.1.9-4.6 1.4a.53.53 0 0 0-.3.2 1.29 1.29 0 0 0 .4-1.2 1.27 1.27 0 0 0-1.5-1c-2 .4-4 .8-5.9 1.3a1.18 1.18 0 0 0-.9 1.5 1.21 1.21 0 0 0 1.1.8zm-44.3 25.7a1.09 1.09 0 0 0 .9-.4l2.4-2.5a19.26 19.26 0 0 0 5 2.5.6.6 0 0 0 .4.1 1.24 1.24 0 0 0 .5-2.4 15.45 15.45 0 0 1-4.1-2 1.15 1.15 0 0 0 0-1.7 1.37 1.37 0 0 0-1.8-.1c-1.5 1.4-2.9 2.8-4.3 4.3a1.27 1.27 0 0 0 .1 1.8 1.22 1.22 0 0 0 .9.4zm-15.3 21.1a1.27 1.27 0 0 0 .6.1 1.08 1.08 0 0 0 1.1-.7c.9-1.8 1.9-3.5 2.9-5.2a1.235 1.235 0 0 0-2.1-1.3c-1 1.7-2 3.5-2.9 5.3a1.24 1.24 0 0 0 .4 1.8zm-8.9 24.4h.3a1.2 1.2 0 0 0 1.2-.9c.5-1.9 1.1-3.9 1.7-5.7a1.265 1.265 0 1 0-2.4-.8c-.6 1.9-1.2 3.8-1.7 5.8a1.28 1.28 0 0 0 .9 1.6zm70 129.1c-1.9-.4-3.9-.9-5.8-1.4a1.15 1.15 0 0 0-1.5.9 1.08 1.08 0 0 0 .7 1.4 1.32 1.32 0 0 0-1.3.9 1.13 1.13 0 0 0 1 1.3q2.85.45 6 .9h.2a1.12 1.12 0 0 0 1.2-1 .84.84 0 0 0-.2-.7 1.56 1.56 0 0 0 .6-.8 1.18 1.18 0 0 0-.9-1.5zm-72.7-116.4h.2a1.19 1.19 0 0 0 1.2-1c.3-2 .7-3.9 1.1-5.8a1.275 1.275 0 0 0-2.5-.5c-.4 1.9-.8 3.9-1.2 5.9a1.6 1.6 0 0 0 1.2 1.4zm18.8-48.1a1.23 1.23 0 0 0 1-.5c1.1-1.6 2.3-3.2 3.5-4.8a1.28 1.28 0 0 0-2-1.6c-1.2 1.6-2.5 3.2-3.6 4.9a1.25 1.25 0 0 0 .3 1.7 1 1 0 0 0 .8.3zm67.1 166.6a1.14 1.14 0 0 0-.6-.3l-.9-.2a1.08 1.08 0 0 0 .8-.9 1.15 1.15 0 0 0-.9-1.5 52.23 52.23 0 0 1-5.6-1.8 1.235 1.235 0 0 0-.9 2.3c1.4.5 2.9 1 4.4 1.4a1.14 1.14 0 0 0-.8.3l-2-.3a1.24 1.24 0 0 0-1.4 1.1v.5a1.23 1.23 0 0 0-.4.8 1.21 1.21 0 0 0 1.1 1.3c2 .2 4 .3 6 .4h.1a1.13 1.13 0 0 0 1.2-1.1 2 2 0 0 0 .4-.8 1 1 0 0 0-.5-1.2zm12.3.2h-.1a1.38 1.38 0 0 0-1.2-1.2 54.2 54.2 0 0 1-5.8-.6 1.26 1.26 0 0 0-.3 2.5h.4v.1a1.61 1.61 0 0 0-.4.7v.1a.35.35 0 0 1-.1.2 1.22 1.22 0 0 0 1.2 1.2h2c1.4.1 2.7.2 4 .2a1.16 1.16 0 0 0 1.2-1.2v-.1a1.22 1.22 0 0 0 .3-.9 1.06 1.06 0 0 0-1.2-1zm-47.6-21.5a1.09 1.09 0 0 0 .9.4 1.14 1.14 0 0 0 .8-.3 1.27 1.27 0 0 0 .1-1.8c-1.3-1.4-2.6-3-3.8-4.5a1.28 1.28 0 1 0-2 1.6c1.3 1.6 2.7 3.2 4 4.6zm6-167a1.14 1.14 0 0 0 .8-.3c1.2-1.1 2.4-2.1 3.7-3.1a14.92 14.92 0 0 1 2.1-.2 1.26 1.26 0 0 0-.3-2.5l-1 .1a1.35 1.35 0 0 0-1.6-.1l-.3.3a29.09 29.09 0 0 0-3.1.4 1.24 1.24 0 0 0-1.1 1.4 1.17 1.17 0 0 0 .9 1l-1 .9a1.37 1.37 0 0 0-.1 1.8 3.81 3.81 0 0 0 1 .3zm-31.8 82.7a1.24 1.24 0 0 0 1.3-1.2c0-2 .1-4 .2-5.9a1.24 1.24 0 0 0-1.2-1.3 1.18 1.18 0 0 0-1.3 1.2l-.3 6a1.31 1.31 0 0 0 1.3 1.2zm1.4 25.9h.2a1.24 1.24 0 0 0 1.1-1.4c-.3-1.9-.5-3.9-.7-5.9a1.26 1.26 0 1 0-2.5.3c.2 2 .4 4 .7 6a1.19 1.19 0 0 0 1.2 1zm39.5 69.8a1.17 1.17 0 0 0 .4 1.7 55.4 55.4 0 0 0 5.3 3 1.27 1.27 0 0 0 .6.1 1.26 1.26 0 0 0 .5-2.4 51.43 51.43 0 0 1-5.1-2.9 1.28 1.28 0 0 0-1.7.5zm.2-186.9a1.15 1.15 0 0 0 1.1.6 2.54 2.54 0 0 0 .7-.2c1.7-1 3.4-2 5.1-2.8a1.275 1.275 0 1 0-1.1-2.3c-1.8.9-3.6 1.9-5.4 2.9a1.32 1.32 0 0 0-.4 1.8zm-36.9 57a1.26 1.26 0 0 0-1.5.9c-.5 1.9-.9 3.9-1.3 5.9a1.33 1.33 0 0 0 1 1.5h.2a1.19 1.19 0 0 0 1.2-1l1.2-5.8a1.07 1.07 0 0 0-.8-1.5zm-3.5 21.2h.1a1.2 1.2 0 0 0 1.2-1.1c.1-1.3.3-2.7.5-4a1.23 1.23 0 0 0 1 .5h.2c1.9-.3 3.9-.7 5.9-1a1.22 1.22 0 1 0-.4-2.4c-2 .3-4 .6-5.9 1a.55.55 0 0 0-.5.3v-.2a1.26 1.26 0 1 0-2.5-.3c-.3 2-.5 4-.7 6a1.18 1.18 0 0 0 1.1 1.2zm-.5 26a1.13 1.13 0 0 0 1.2-1.3l-.1-2.6c0-1.1-.1-2.2-.1-3.4a1.25 1.25 0 0 0-2.5.1c0 1.1 0 2.3.1 3.4 0 .9.1 1.8.1 2.6a1.39 1.39 0 0 0 1.3 1.2zm5.6-51.5a1.4 1.4 0 0 0 1.2-.9l1.8-5.7a1.265 1.265 0 1 0-2.4-.8 55.75 55.75 0 0 0-1.8 5.8 1.31 1.31 0 0 0 .8 1.6h.4zm-2 77.2h.3a1.18 1.18 0 0 0 .9-1.5c-.5-1.9-.9-3.9-1.2-5.8a1.275 1.275 0 1 0-2.5.5c.4 2 .8 4 1.3 5.9a1.2 1.2 0 0 0 1.2.9zm5.8-89.5a.9.9 0 0 0 .5.1 1.3 1.3 0 0 0 1.2-.8c.8-1.8 1.6-3.7 2.4-5.4a1.275 1.275 0 0 0-2.3-1.1c-.9 1.8-1.7 3.7-2.5 5.5a1.43 1.43 0 0 0 .7 1.7zm18.1-29.2a1.27 1.27 0 0 0-1.8.1 60.78 60.78 0 0 0-3.9 4.7 1.39 1.39 0 0 0 .2 1.8 1.14 1.14 0 0 0 .8.3 1.39 1.39 0 0 0 1-.5 56.32 56.32 0 0 1 3.8-4.5 1.5 1.5 0 0 0-.1-1.9zm-16.6 136a1.235 1.235 0 1 0-2.3.9c.8 1.9 1.6 3.7 2.5 5.5a1.36 1.36 0 0 0 1.1.7.75.75 0 0 0 .5-.1 1.29 1.29 0 0 0 .6-1.7c-.8-1.7-1.6-3.5-2.4-5.3zm7.7 18.5a1.85 1.85 0 0 0 .7-.2 1.3 1.3 0 0 0 .4-1.7c-1.1-1.6-2.1-3.3-3.1-5a1.253 1.253 0 1 0-2.2 1.2c1 1.8 2.1 3.5 3.2 5.2a1.23 1.23 0 0 0 1 .5zm137.8-59.6c.1-1.5.2-3 .3-4.4l.1-1.6a1.25 1.25 0 1 0-2.5-.1c0 .5-.1 1-.1 1.6l-.3 4.4a1.24 1.24 0 0 0 1.1 1.4h.1a1.49 1.49 0 0 0 1.3-1.3zm-2.9-31.9c.2 1.9.4 3.9.6 5.9a1.22 1.22 0 0 0 1.2 1.2h.1a1.38 1.38 0 0 0 1.2-1.3c-.2-2-.3-4-.6-6a1.24 1.24 0 0 0-1.4-1.1 1.16 1.16 0 0 0-1.1 1.3zm1.1 44.9c.4-2 .7-4 1-6a1.26 1.26 0 1 0-2.5-.3c-.3 2-.6 3.9-1 5.9a1.33 1.33 0 0 0 1 1.5h.2a1.5 1.5 0 0 0 1.3-1.1zm1.1-33.3a1.24 1.24 0 0 0-1.2 1.3c0 1.4.1 2.9.1 4.4v1.6a1.24 1.24 0 0 0 1.2 1.3 1.22 1.22 0 0 0 1.2-1.2v-1.6c0-1.5 0-3-.1-4.4a.37.37 0 0 0-.1-.3 2.65 2.65 0 0 0 .6.5c2 .6 3.9 1.3 5.6 1.9a.6.6 0 0 0 .4.1 1.24 1.24 0 0 0 .5-2.4c-1.8-.7-3.7-1.3-5.8-2a1.31 1.31 0 0 0-1.6.8.85.85 0 0 0 0 .7.71.71 0 0 0-.8-.7zm-4.3-24.3c.4 1.9.8 3.9 1.1 5.8a1.19 1.19 0 0 0 1.2 1h.2a1.22 1.22 0 0 0 1-1.4 56 56 0 0 0-1.2-5.9 1.27 1.27 0 0 0-1.5-1 1.48 1.48 0 0 0-.8 1.5zm-22.8-46.9a1.27 1.27 0 0 0 0 1.8c1.3 1.4 2.7 2.9 3.9 4.4a1.23 1.23 0 0 0 1 .5 1.14 1.14 0 0 0 .8-.3 1.36 1.36 0 0 0 .2-1.8 2.36 2.36 0 0 0-.5-.5q4.8-2.25 4.8-5.1c0-1.5-1-2.9-3-4.1a1.235 1.235 0 0 0-1.3 2.1c1.1.7 1.8 1.4 1.8 2 0 .3-.2 1.4-3.4 2.9a2.18 2.18 0 0 0-.5.4l-2-2.2a1.19 1.19 0 0 0-1.8-.1zm-20.5-13.5c1.3.6 2.5 1.3 3.7 2a9.85 9.85 0 0 0-1.7-.2 1.26 1.26 0 1 0-.3 2.5c2.1.3 4 .5 5.9.8h.2a1.19 1.19 0 0 0 1.2-1.1 1.25 1.25 0 0 0-1-1.4c-.4-.1-.8-.1-1.1-.2a1.17 1.17 0 0 0-.4-1.7 55.41 55.41 0 0 0-5.3-3 1.28 1.28 0 0 0-1.7.5 1.34 1.34 0 0 0 .5 1.8zm15.5 10.5a1.14 1.14 0 0 0 .8.3 1.09 1.09 0 0 0 .9-.4 1.27 1.27 0 0 0-.1-1.8c-.8-.7-1.7-1.5-2.6-2.2 2.1.5 4 .9 5.7 1.4a2.27 2.27 0 0 0 .4.1 1.26 1.26 0 0 0 1.2-.9 1.31 1.31 0 0 0-.8-1.6c-1.7-.5-3.7-1-5.9-1.5a1.33 1.33 0 0 0-1.5 1 1.06 1.06 0 0 0 .1.8l-1.2-1a1.22 1.22 0 1 0-1.4 2l4.4 3.8zm24.4 37.6q.9 2.7 1.8 5.7a1.26 1.26 0 0 0 1.2.9h.3a1.22 1.22 0 0 0 .9-1.5c-.6-2-1.2-3.9-1.8-5.8a1.23 1.23 0 0 0-1.6-.8 1 1 0 0 0-.8 1.5zm-51.7-53c1.9.6 3.7 1.3 5.5 2a.9.9 0 0 0 .5.1 1.3 1.3 0 0 0 1.2-.8 1.15 1.15 0 0 0-.7-1.6q-2.85-1.2-5.7-2.1a1.23 1.23 0 0 0-1.6.8 1.31 1.31 0 0 0 .8 1.6zm40.6 28.3a1.18 1.18 0 0 0-.3 1.7c1.1 1.6 2.2 3.3 3.2 5a1.15 1.15 0 0 0 1.1.6 1.42 1.42 0 0 0 .6-.2 1.19 1.19 0 0 0 .4-1.7 44.52 44.52 0 0 0-3.3-5.1 1.23 1.23 0 0 0-1.7-.3zm8.6 18.2a1.3 1.3 0 0 0 1.2.8.9.9 0 0 0 .5-.1 1.35 1.35 0 0 0 .7-1.6c-.8-1.9-1.6-3.7-2.5-5.5a1.275 1.275 0 0 0-2.3 1.1c.8 1.6 1.6 3.5 2.4 5.3zm4.5 90.1h.3a1.4 1.4 0 0 0 1.2-.9c.5-1.9 1.1-3.9 1.5-5.9a1.24 1.24 0 1 0-2.4-.6l-1.5 5.8a1.47 1.47 0 0 0 .9 1.6zm-62.9 65.3a1.22 1.22 0 0 0-1.4-1 49.54 49.54 0 0 1-5.4.6c1.9-.4 3.8-.8 5.7-1.4a1.265 1.265 0 1 0-.8-2.4 47.49 47.49 0 0 1-5.7 1.4 1.22 1.22 0 0 0-1 1.4 1.19 1.19 0 0 0 1.2 1 1.24 1.24 0 0 0-.8.6 1.45 1.45 0 0 0-.2.7l.1.5a1.17 1.17 0 0 0 1.1.8h.1a11 11 0 0 0 1.8-.2c1.4-.1 2.8-.1 4.1-.2a1.22 1.22 0 0 0 1.2-1.2.2.2 0 0 0-.1-.2c.1-.2.2-.3.1-.4zm50.8-37.5a1.17 1.17 0 0 0-1.7.4c-1.1 1.7-2.2 3.3-3.3 4.9a1.17 1.17 0 0 0 .3 1.7 1 1 0 0 0 .7.2 1.23 1.23 0 0 0 1-.5c1.2-1.6 2.3-3.3 3.4-5a1.42 1.42 0 0 0-.4-1.7zm-32.5 32.7a55.4 55.4 0 0 0 5.3-3 1.235 1.235 0 0 0-1.3-2.1 52.06 52.06 0 0 1-5.2 2.8 1.32 1.32 0 0 0-.6 1.7 1.36 1.36 0 0 0 1.1.7c.3 0 .5-.1.7-.1zm23.2-21.9c-1.3 1.5-2.6 3-3.9 4.4a1.27 1.27 0 0 0 0 1.8 1.4 1.4 0 0 0 .9.3 1.09 1.09 0 0 0 .9-.4c1.4-1.4 2.7-3 4.1-4.5a1.28 1.28 0 0 0-.2-1.8 1.38 1.38 0 0 0-1.8.2zm15.3-22.3a1.32 1.32 0 0 0-1.7.6l-2.5 5.1c-1.4.2-2.9.5-4.4.7a1.12 1.12 0 0 0-1 1.4 1.28 1.28 0 0 0 1.2 1.1h.2c2.1-.3 4.1-.6 6-1a1.27 1.27 0 0 0 1-1.5.76.76 0 0 0-.2-.5l2.1-4.2a1.37 1.37 0 0 0-.7-1.7zm3.5-4.8c.7-1.7 1.3-3.4 1.9-5.1a1.36 1.36 0 0 0 1.2-1 1.26 1.26 0 0 0-.9-1.5c-1.8-.4-3.8-.9-5.9-1.3a1.275 1.275 0 1 0-.5 2.5c1.3.2 2.5.5 3.7.8-.6 1.6-1.1 3.2-1.8 4.7a1.22 1.22 0 0 0 .7 1.6.9.9 0 0 0 .5.1 1.27 1.27 0 0 0 1.1-.8zm-16.6-100a1.24 1.24 0 1 0-2.4.6c.5 1.9 1 3.8 1.5 5.8a1.19 1.19 0 0 0 1.2 1h.3a1.18 1.18 0 0 0 .9-1.5c-.5-2.1-1-4-1.5-5.9zm-9.5-17.8a1.36 1.36 0 0 0 1.1.7 1.27 1.27 0 0 0 .6-.1 1.2 1.2 0 0 0 .5-1.7l-1.7-3.2c1-.2 2-.4 2.9-.6s1.7-.4 2.5-.6a1.24 1.24 0 0 0-.6-2.4l-2.4.6a34 34 0 0 1-3.4.7l-.3.1a1.15 1.15 0 0 0-1.6-.3 1.19 1.19 0 0 0-.4 1.7c.9 1.6 1.9 3.4 2.8 5.1zm-28.6 167.1a40.66 40.66 0 0 0 5.3-3.1 1.235 1.235 0 0 0-1.3-2.1 32 32 0 0 1-5.1 2.9 1.32 1.32 0 0 0-.6 1.7 1.36 1.36 0 0 0 1.1.7 1.27 1.27 0 0 0 .6-.1zm39.7-84.6c-.2 2-.4 4-.7 5.9a1.24 1.24 0 0 0 1.1 1.4h.2a1.2 1.2 0 0 0 1.2-1.1l.7-6a1.24 1.24 0 0 0-1.1-1.4 1.4 1.4 0 0 0-1.4 1.2zm-16.9-92.8a1.33 1.33 0 0 0 .8-.3 1.19 1.19 0 0 0 .2-1.8c-1.2-1.6-2.6-3.2-3.9-4.7a1.275 1.275 0 0 0-1.9 1.7 56.32 56.32 0 0 1 3.8 4.5 1 1 0 0 0 1 .6zm15.2 105.6c-.3 2-.7 4-1 5.9a1.33 1.33 0 0 0 1 1.5h.2a1.19 1.19 0 0 0 1.2-1c.4-1.9.7-3.9 1.1-5.9a1.25 1.25 0 0 0-1-1.4 1.09 1.09 0 0 0-1.5.9zm3.5-18.4a1.16 1.16 0 0 0 1.2-1.2l.1-1.9c.1-1.4.2-2.8.2-4.1a1.25 1.25 0 0 0-2.5-.1l-.2 4.1-.1 1.9a1.48 1.48 0 0 0 1.3 1.3zm-7.7-71.6a1.235 1.235 0 0 0-2.3.9c.7 1.8 1.5 3.6 2.1 5.5a1.3 1.3 0 0 0 1.2.8.6.6 0 0 0 .4-.1 1.23 1.23 0 0 0 .8-1.6c-.7-1.7-1.4-3.6-2.2-5.5zm6.8 32.6h.2a1.24 1.24 0 0 0 1.1-1.4l-.9-6a1.22 1.22 0 1 0-2.4.4c.3 1.9.6 3.9.9 5.9a1 1 0 0 0 1.1 1.1zm-19.3 105.7a58.51 58.51 0 0 1-3.4 4.8 1.38 1.38 0 0 0 .2 1.8 1.14 1.14 0 0 0 .8.3 1.23 1.23 0 0 0 1-.5c1.2-1.6 2.4-3.3 3.5-5a1.262 1.262 0 0 0-2.1-1.4zm-5.9 11.8a1.275 1.275 0 0 0-1.9-1.7l-.8.8q-2.85-.45-6-.9a1.25 1.25 0 0 0-1.4 1 1.21 1.21 0 0 0 1.1 1.3q2.25.3 4.2.6l-1.3 1.2a1.27 1.27 0 0 0-.1 1.8 1.09 1.09 0 0 0 .9.4 1.14 1.14 0 0 0 .8-.3 29.52 29.52 0 0 0 4.5-4.2zm14.7-29.4a1.31 1.31 0 0 0 .7 1.6.6.6 0 0 0 .4.1 1.3 1.3 0 0 0 1.2-.8c.7-1.9 1.4-3.8 2-5.7a1.265 1.265 0 1 0-2.4-.8c-.6 1.9-1.2 3.7-1.9 5.6zm-49.4 28.6c2 0 4 0 6 .1a1.13 1.13 0 0 0 1.2-1.1 1.22 1.22 0 0 0-1.2-1.2l-6-.1a1.16 1.16 0 0 0-1.2 1.2 1.13 1.13 0 0 0 1.2 1.1zm44.3 5.5a1.23 1.23 0 0 0 1.1-.7 1.06 1.06 0 0 0-.2-1.2l2.7-2.2a1.275 1.275 0 0 0-1.7-1.9l-3.6 3c-1.1-.4-2.3-.7-3.7-1.1a1.16 1.16 0 0 0-1.5.8 1.09 1.09 0 0 0 .9 1.4c1.1.3 2 .5 2.9.8a.76.76 0 0 0 .2.5 1.23 1.23 0 0 0 1 .5 1.45 1.45 0 0 0 .7-.2 2.57 2.57 0 0 1 .5.2 3.55 3.55 0 0 1 .7.1zm-83.2 7.7a36.35 36.35 0 0 1-5.5-1.7 1.17 1.17 0 0 0-1.6.6 1.07 1.07 0 0 0 .6 1.5 32 32 0 0 0 5.9 1.8h.3a1.11 1.11 0 0 0 1.2-.9 1 1 0 0 0-.9-1.3zm76.8-.1c-1.7.4-3.7.8-5.8 1.2a1.17 1.17 0 0 0-1 1.4 1.11 1.11 0 0 0 1.2.9h.2c2.1-.4 4.1-.8 5.9-1.2a1.13 1.13 0 0 0 .9-1.4 1.07 1.07 0 0 0-1.4-.9zm-82.1-9.1a1.25 1.25 0 0 0-1.7-.5 15.3 15.3 0 0 0-3.5 2.1 2.36 2.36 0 0 0-.5-.5c-1.8-.9-3.5-1.8-5.2-2.8a1.235 1.235 0 1 0-1.3 2.1c1.7 1 3.5 2 5.3 2.9a.37.37 0 0 0 .3.1 1.27 1.27 0 0 0-.1.6 1.21 1.21 0 0 0 1.1 1.3h.1a1.12 1.12 0 0 0 1.2-1c0-.4.5-1.4 3.5-2.7a1.16 1.16 0 0 0 .8-1.6zm12.5-3a1.29 1.29 0 0 0-1.5-.9c-1.5.3-2.9.5-4.2.8-1.3-1-2.6-2.1-3.8-3.2a1.275 1.275 0 0 0-1.7 1.9 34.68 34.68 0 0 0 2.9 2.5 1.7 1.7 0 0 0-.1.7 1.29 1.29 0 0 0 1.2.9h.3l.3-.1a1 1 0 0 0 .7.2 1.39 1.39 0 0 0 1-.5.31.31 0 0 1 .1-.2c1.2-.2 2.4-.5 3.7-.7a1.2 1.2 0 0 0 1.1-1.4zm18.7-.7c2-.1 4-.2 6-.2a1.22 1.22 0 0 0 1.2-1.2 1.23 1.23 0 0 0-1.3-1.1c-2 .1-4.1.1-6 .2a1.22 1.22 0 0 0-1.2 1.2 1.3 1.3 0 0 0 1.3 1.1zm25.9 0c2 .1 4 .2 5.9.4h.1a1.2 1.2 0 0 0 .1-2.4c-1.9-.2-4-.3-6-.4a1.2 1.2 0 1 0-.1 2.4zm35.9 6.9a1.16 1.16 0 0 0-1.2 1.2c0 .8-1.2 1.8-3.3 2.7a1.12 1.12 0 0 0-.6 1.5 1.36 1.36 0 0 0 1.1.7.75.75 0 0 0 .5-.1c3.1-1.4 4.7-3 4.7-4.8a1.1 1.1 0 0 0-1.2-1.2zm-23.5 8.1l-1.2.1 1.4-.5a1.235 1.235 0 0 0-.9-2.3 52.22 52.22 0 0 1-5.6 1.8 1.22 1.22 0 0 0-.9 1.5 2.19 2.19 0 0 0 .3.5 1.45 1.45 0 0 0-.2.7 1.28 1.28 0 0 0 1.2 1.1h.1q3.15-.3 6-.6a1.21 1.21 0 0 0 1.1-1.3 1.16 1.16 0 0 0-1.3-1zm-44.1-15.8a1.25 1.25 0 0 0-1.4-1q-3.15.3-6 .6a1.21 1.21 0 0 0-1.1 1.3 1.19 1.19 0 0 0 1.2 1h.2l5.9-.6a1.22 1.22 0 0 0 1.2-1.3zm48.1-179.9a1.24 1.24 0 0 0-1.9 1.3l-3.6-.3a1.25 1.25 0 0 0-.1 2.5c2 .1 4 .3 6 .5h.1a1.42 1.42 0 0 0 .6-.2c.8.6 1.5 1.2 2.3 1.9a1.14 1.14 0 0 0 .8.3 1.09 1.09 0 0 0 .9-.4 1.27 1.27 0 0 0-.1-1.8c-1.7-1.3-3.3-2.6-5-3.8zm-12.7 3a1.25 1.25 0 0 0 .1-2.5l-6-.3a1.25 1.25 0 1 0-.1 2.5c2.1.2 4 .2 6 .3zm16.8 19.6a1.28 1.28 0 0 0 1.2 1.1h.1c2.1-.2 4.1-.5 6-.8a1.26 1.26 0 1 0-.3-2.5c-1.9.3-3.9.5-5.9.8a1.26 1.26 0 0 0-1.1 1.4zm-12.9 1.1a1.22 1.22 0 0 0 1.2 1.2h.1c2.1-.1 4.1-.3 6-.5a1.26 1.26 0 1 0-.3-2.5c-1.9.2-3.9.3-6 .5a1.16 1.16 0 0 0-1 1.3zm-13 .6a1.22 1.22 0 0 0 1.2 1.2l6-.2a1.25 1.25 0 0 0-.1-2.5c-2 .1-4 .2-6 .2a1.23 1.23 0 0 0-1.1 1.3zm-22.8-21.5l6-.2a1.25 1.25 0 0 0-.1-2.5c-2 0-4 .1-6 .2a1.25 1.25 0 0 0 .1 2.5zm-3.2 21.3a1.24 1.24 0 0 0 1.2 1.3l6 .2a1.16 1.16 0 0 0 1.2-1.2 1.24 1.24 0 0 0-1.2-1.3c-2 0-4-.1-6-.2a1.22 1.22 0 0 0-1.2 1.2zm-24.8-.8c1.9.3 3.9.5 6 .7h.1a1.2 1.2 0 0 0 1.2-1.1 1.24 1.24 0 0 0-1.1-1.4c-2-.2-4-.4-5.9-.7a1.26 1.26 0 1 0-.3 2.5zm-10.8-16.4h.3c1.8-.4 3.8-.8 5.8-1.1a1.22 1.22 0 0 0-.4-2.4c-2.1.3-4.1.7-6 1.1a1.27 1.27 0 0 0-1 1.5 1.42 1.42 0 0 0 1.3.9zm-12.3 4a1.42 1.42 0 0 0 .6-.2 21.65 21.65 0 0 1 2.6-1.2 1.42 1.42 0 0 0 .2.6 1.23 1.23 0 0 0 1 .5 1.33 1.33 0 0 0 .8-.3c1.5-1.2 3.1-2.4 4.7-3.5a1.22 1.22 0 1 0-1.4-2 19.52 19.52 0 0 0-2.3 1.7 1.39 1.39 0 0 0-1.1-.2 34 34 0 0 0-5.8 2.4 1.19 1.19 0 0 0-.4 1.7 1.61 1.61 0 0 0 1.1.5zm62.1 12.3a1.22 1.22 0 0 0-1.2 1.2 1.31 1.31 0 0 0 1.2 1.3h6a1.24 1.24 0 0 0 1.2-1.3 1.22 1.22 0 0 0-1.2-1.2h-6zm-52.9-3.7a1.26 1.26 0 0 0 .9 1.5l.5.1c-1.1 1.6-2.1 3.4-3.1 5.1a1.28 1.28 0 0 0 .5 1.7 1.42 1.42 0 0 0 .6.2 1.25 1.25 0 0 0 1.1-.6c1-1.7 2-3.4 3.1-5a1.08 1.08 0 0 0 .2-.8l3.1.6h.2a1.19 1.19 0 0 0 1.2-1 1.17 1.17 0 0 0-1-1.4c-2.1-.4-4-.8-5.8-1.2a1.13 1.13 0 0 0-1.5.8zm55.1-16.9h5.8a1.16 1.16 0 0 0 1.2-1.2 1.24 1.24 0 0 0-1.2-1.3h-6a1.22 1.22 0 0 0-1.2 1.2 1.29 1.29 0 0 0 1.2 1.2h.2v.1zm-29.4 20.7a1.16 1.16 0 0 0 1.1 1.3c2 .2 4 .3 6 .4h.1a1.16 1.16 0 0 0 1.2-1.2 1.24 1.24 0 0 0-1.2-1.3l-6-.4a1.37 1.37 0 0 0-1.2 1.2zm10.4-21.5a1.24 1.24 0 0 0-1.3-1.2c-2 .1-4.1.2-6 .4a1.38 1.38 0 0 0-1.2 1.3 1.22 1.22 0 0 0 1.2 1.2h.1c1.9-.1 3.9-.3 6-.4a1.18 1.18 0 0 0 1.2-1.3zm69.1 155.6a1.21 1.21 0 0 0-1.3.7c-.8 1.8-1.7 3.6-2.6 5.3a1.28 1.28 0 0 0 .5 1.7 1.27 1.27 0 0 0 .6.1 1.17 1.17 0 0 0 1.1-.7c.9-1.7 1.8-3.6 2.7-5.4a.37.37 0 0 1 .1-.3h.3c2.1-.2 4-.4 6-.7a1.26 1.26 0 0 0-.3-2.5c-1.9.2-3.9.5-5.9.7a1.51 1.51 0 0 0-1.2 1.1zm-134.7-6.6a2.54 2.54 0 0 0-.7-.2 49.15 49.15 0 0 1-2.4-4.5 1.275 1.275 0 1 0-2.3 1.1l1 1.9a7.26 7.26 0 0 1-.9-.5 1.253 1.253 0 0 0-1.2 2.2 33.09 33.09 0 0 0 4.1 1.8 1.23 1.23 0 0 0 1 .5.76.76 0 0 0 .4-.1l.3.1.4.1a1.26 1.26 0 0 0 1.2-.9 1.42 1.42 0 0 0-.9-1.5zm25.3 5c-2-.3-4-.5-5.9-.8a1.26 1.26 0 0 0-.3 2.5c1.9.3 3.9.6 6 .8h.2a1.2 1.2 0 0 0 1.2-1.1 1.61 1.61 0 0 0-1.2-1.4zm8.9-22.9a1.24 1.24 0 0 0-1.4-1.1c-2.1.2-4 .4-6 .7a1.24 1.24 0 0 0-1.1 1.4 1.28 1.28 0 0 0 1.2 1.1h.2c1.9-.2 3.9-.5 5.9-.7a1.25 1.25 0 0 0 1.2-1.4zm-38.2 7.4a1.29 1.29 0 0 0-1.7-.6l-.4.2v-.2l-2.1-5.5a1.265 1.265 0 1 0-2.4.8c.6 1.9 1.4 3.8 2.1 5.7a1.38 1.38 0 0 0 .3.4 6.3 6.3 0 0 0-2.7 3 1.22 1.22 0 0 0 .7 1.6.75.75 0 0 0 .5.1 1.3 1.3 0 0 0 1.2-.8c.2-.5 1-1.7 3.9-3a1.21 1.21 0 0 0 .6-1.7zm153.6-4.2h.2a1.19 1.19 0 0 0 1.2-1.1 1.25 1.25 0 0 0-1-1.4c-1.9-.3-3.9-.6-6-.8a1.2 1.2 0 0 0-.8.2l-.2-.1a1.26 1.26 0 0 0-1.5.9c-.5 2-1 3.9-1.5 5.8a1.15 1.15 0 0 0 .9 1.5h.3a1.29 1.29 0 0 0 1.2-.9c.4-1.6.9-3.3 1.3-5 2.1.3 4 .6 5.9.9zm-25.8-2.9a1.24 1.24 0 0 0 1.3-1.2 1.18 1.18 0 0 0-1.2-1.3l-6-.4a1.18 1.18 0 0 0-1.3 1.2 1.24 1.24 0 0 0 1.2 1.3c2.1.2 4.1.3 6 .4zm-50.6-2.5a1.18 1.18 0 0 0-1.3-1.2c-2 0-4 .1-6 .2a1.24 1.24 0 0 0-1.2 1.3 1.22 1.22 0 0 0 1.2 1.2l6-.2a1.32 1.32 0 0 0 1.3-1.3zm-28.3 29.5l6 .4h.1a1.16 1.16 0 0 0 1.2-1.2 1.24 1.24 0 0 0-1.2-1.3c-2-.1-4-.2-6-.4a1.18 1.18 0 0 0-1.3 1.2 1.38 1.38 0 0 0 1.2 1.3zm26.1 1.1l6 .1a1.22 1.22 0 0 0 1.2-1.2 1.24 1.24 0 0 0-1.2-1.3l-6-.1a1.18 1.18 0 0 0-1.3 1.2 1.26 1.26 0 0 0 1.3 1.3zm-18-28.6l6-.3a1.25 1.25 0 1 0-.1-2.5l-6 .3a1.25 1.25 0 0 0 .1 2.5zm3.7 26.9a1.24 1.24 0 0 0 1.2 1.3c2 .1 4 .2 6 .2a1.16 1.16 0 0 0 1.2-1.2 1.24 1.24 0 0 0-1.2-1.3l-6-.2a1.37 1.37 0 0 0-1.2 1.2zm-56.4-20.8a1.4 1.4 0 0 0 1.2.9.76.76 0 0 0 .4-.1c1.7-.5 3.7-1 5.7-1.5a1.24 1.24 0 1 0-.6-2.4c-2.1.5-4.1 1-5.9 1.5a1.31 1.31 0 0 0-.8 1.6zm5.8 16.2c1.8.4 3.8.8 5.9 1.2h.2a1.19 1.19 0 0 0 1.2-1 1.33 1.33 0 0 0-1-1.5c-2.1-.4-4-.8-5.8-1.2a1.26 1.26 0 0 0-1.5.9 1.32 1.32 0 0 0 1 1.6zm168.6-12.2a1.38 1.38 0 0 0 1.1-.6 1.17 1.17 0 0 0-.4-1.7 28.33 28.33 0 0 0-5.7-2.5 1.265 1.265 0 1 0-.8 2.4 23.49 23.49 0 0 1 5.2 2.3 1.27 1.27 0 0 0 .6.1zm-7.7 8.1q-2.55.75-5.7 1.5a1.27 1.27 0 0 0 .3 2.5h.3c2.1-.5 4.1-1 5.9-1.6a1.23 1.23 0 0 0 .8-1.6 1.31 1.31 0 0 0-1.6-.8zm-56.1-18.4a1.16 1.16 0 0 0 1.2-1.2 1.24 1.24 0 0 0-1.2-1.3c-2-.1-4-.2-6-.2a1.25 1.25 0 1 0-.1 2.5c2.1 0 4.1.1 6.1.2zm-13.9 28.8c2.1 0 4.1-.1 6-.2a1.25 1.25 0 0 0-.1-2.5l-6 .2a1.24 1.24 0 0 0-1.2 1.3 1.31 1.31 0 0 0 1.3 1.2zm13-.4l6.1-.3a1.25 1.25 0 0 0-.1-2.5l-6 .3a1.24 1.24 0 0 0-1.2 1.3 1.16 1.16 0 0 0 1.2 1.2zm19.6-28.4a1.24 1.24 0 0 0 1.1 1.4l6 .6h.1a1.2 1.2 0 0 0 1.2-1.1 1.24 1.24 0 0 0-1.1-1.4l-6-.6a1.21 1.21 0 0 0-1.3 1.1zm-82.4-.6a1.3 1.3 0 0 0-1.3-1.2c-2 .1-4 .3-6 .5a1.24 1.24 0 0 0-1.1 1.4 1.19 1.19 0 0 0 1.2 1.1h.1c1.9-.2 3.9-.3 6-.5a1.38 1.38 0 0 0 1.1-1.3zm83 26.4a1.24 1.24 0 0 0-1.4-1.1c-1.9.2-3.9.3-6 .5a1.31 1.31 0 0 0-1.2 1.3 1.22 1.22 0 0 0 1.2 1.2h.1c2-.1 4-.3 6-.5a1.27 1.27 0 0 0 1.3-1.4zm-99.4-.6a1.24 1.24 0 0 0 1.1 1.4l6 .6h.1a1.2 1.2 0 0 0 1.2-1.1 1.24 1.24 0 0 0-1.1-1.4l-6-.6a1.21 1.21 0 0 0-1.3 1.1zm53.2 3.8h6a1.24 1.24 0 0 0 1.2-1.3 1.22 1.22 0 0 0-1.2-1.2h-6a1.24 1.24 0 0 0-1.2 1.3 1.22 1.22 0 0 0 1.2 1.2zm93.8-17.4a1.22 1.22 0 0 0-1.2 1.2c0 .9-1.1 2-3.2 3.1a1.28 1.28 0 0 0-.5 1.7 1.36 1.36 0 0 0 1.1.7 1.27 1.27 0 0 0 .6-.1c3-1.6 4.5-3.4 4.5-5.3a1.32 1.32 0 0 0-1.3-1.3zm-157.3-2.4a.6.6 0 0 0 .4-.1 1.23 1.23 0 0 0 .8-1.6c-.5-1.4-.9-2.7-1.3-4.1a1.28 1.28 0 0 0-.5-2.5c-.3 0-.5.1-.7.1a2 2 0 0 0-.8-.1l-.5.2c-1.4.2-2.7.4-4 .7a1.22 1.22 0 0 0-1 1.4 1.19 1.19 0 0 0 1.2 1h.2c1.1-.2 2.3-.4 3.5-.6.5 1.5 1 3.1 1.5 4.5a1.35 1.35 0 0 0 1.2 1.1zm77.4-9.7l-6-.1a1.24 1.24 0 0 1-1.2-1.3 1.18 1.18 0 0 1 1.3-1.2l6 .1a1.25 1.25 0 1 1-.1 2.5zm-19-.1a1.22 1.22 0 0 1-1.2-1.2 1.24 1.24 0 0 1 1.2-1.3h6.1a1.22 1.22 0 0 1 1.2 1.2 1.29 1.29 0 0 1-1.2 1.2h-1c-1.7.1-3.4.1-5.1.1z"/><path fill="#fff" d="M100.93 109.14l28.7 17.6a1.91 1.91 0 0 1 .7 2.5l-1.7 3.7"/><path fill="#fff" d="M134.23 131.24a2.74 2.74 0 0 0 .8 3.4l2.9 2a2.16 2.16 0 0 0 3.2-.8v-.1a2.68 2.68 0 0 0-.8-3.6l-2.9-1.9a2.21 2.21 0 0 0-3.2 1zm-14.4 5.6l2.9 1.8c1.2.6 2.2.2 3.5-1.8 0 0 .7-1.3 1.5-3 .5-1 .2-1.9-1.3-2.6l-3.4-2c-.5-.3-1.3 1.5-2.1 3-1 2.2-2.2 3.9-1.1 4.6z"/><path fill="#47519f" d="M225.83 125.04c3.8-.7 5.8-1.9 9.8-3.5l-3.5-11.3a54 54 0 0 0-2.5-6.7 95.49 95.49 0 0 0-10.4-18.1l-.1-.1-7.6 1.7.7 1.3c7.2 11.5 11.7 36.9 11.7 36.9l1.9-.2zm16.6-5.8s13-2.8 12.3-6.5c-1.7-9-14.9-25.5-25.1-33.1-2-1.5-6.1 3.2-6.1 3.2 11.3 10.4 18.9 36.4 18.9 36.4zm-42.4 11.2a55.51 55.51 0 0 0 17.2-3c-2.8-23.9-10.7-38.9-10.7-38.9l-10.4 1.8c.2 2.4 2 9.7 3 19.4a163.87 163.87 0 0 1 .7 20.6l.2.1zm54.4-10.6c-10.2 5.9-24.9 8.9-24.9 8.9 2.8 19.2 3.6 35.5 3.6 35.5a54.25 54.25 0 0 0 29.4-13.2c-3.4-22.6-8.1-31.2-8.1-31.2zm-64.3 16.1c.7 20.5.4 34.5.4 34.5 26.3-2 37.8-5.2 37.8-5.2.2-21.6-2.9-35.5-2.9-35.5a197.83 197.83 0 0 1-35.3 6.2zm28.3-59.7c2.1 3 3.9-2.5 3.9-2.5s-9.2-11.1-26.6-13.4c.1 0 20.7 12.8 22.7 15.9z"/><path fill="#bbbdbf" d="M157.03 260.54l-1.5-27.9-6.2-3.3c-1.3-6.7 5.1-4.3 7.7-10.6l.5-7.3a82.12 82.12 0 0 0-1.2-19.8c-7-2.2-46.7-8.1-11.7-15.7l12.1-6.6v-14.6s-3.5-3.6-1.8-10.2c.4-1.6 3.2-4.1 3.3-5.9.1-6.9-2.4-13.9-2.4-17.9 0-4.8.9-22.1.9-22.1s-31.1-5.9 0-15.4a95.19 95.19 0 0 1 .6-18.5l-.7-11.6 6.8.1-.1 14.5a84.24 84.24 0 0 1 .3 12.3l-.2 3.1c31.1 9.5 0 15.4 0 15.4s.9 17.2.9 22.1c0 3.9-2.5 11-2.4 17.9 0 1.8 2.8 4.3 3.3 5.9 1.7 6.6-1.8 10.2-1.8 10.2v14.6l12.1 6.6c38.5 9.5-4.8 13.6-11.7 15.7a82.12 82.12 0 0 0-1.2 19.8l.5 7.3c2.6 6.3 9 3.9 7.7 10.6l-6.2 3.3-1.5 27.7z"/><ellipse cx="99.36" cy="111.41" fill="#fff" rx="28" ry="21.4" transform="rotate(-70.13 99.353 110.726)"/><ellipse cx="103.52" cy="115.68" fill="#eb5c2c" rx="13.59" ry="9.6" transform="rotate(-70.11 103.527 115.006)"/><path fill="#fff" d="M108.33 83.04s.6 11.4-.8 19m-28.7 21.9c10.3.9 15.7-2.7 15.7-2.7m17.5.9l3.1 6.2"/><ellipse cx="103.52" cy="115.68" fill="#2a2f5a" rx="3.4" ry="2.4" transform="rotate(-70.11 103.527 115.006)"/><path fill="#2a2f5a" d="M103.63 120.14a4.25 4.25 0 0 1-1.1-.2c-2.1-.7-3-3.4-2-6s3.3-4.1 5.4-3.3 3 3.4 2 6a5.79 5.79 0 0 1-2 2.8 5.49 5.49 0 0 1-2.3.7zm1.1-6.7a1.91 1.91 0 0 0-1.4 1.5c-.4 1.1-.1 2 .2 2.1a.85.85 0 0 0 .6-.2 3 3 0 0 0 .9-1.3c.4-1.1.1-2-.3-2.1zm56.1-34.9a1.54 1.54 0 0 1-1.5-1.5v-1.5a1.5 1.5 0 0 1 3 0v1.5a1.54 1.54 0 0 1-1.5 1.5z"/><path fill="#30358c" d="M45.13 60.34h-2.1l-4.2 1.6v2.6l3.4-1.3v11.6h-3.4v2.6h9.3v-2.6h-3v-14.5zm222.2-6c0-1.7 2.1-2.8 4.3-4.1s4.7-3.1 4.7-6c0-3.2-2.5-4.8-6-4.8a10 10 0 0 0-5.7 1.7v2.8a9.34 9.34 0 0 1 5.4-1.9c2.1 0 3.4.8 3.4 2.3 0 1.9-1.7 2.8-3.7 4-2.6 1.5-5.7 3.1-5.7 7.3v1.3h12.4v-2.6h-9.1zm-9.8 202.1a3.74 3.74 0 0 0 2.5-3.7c0-2.9-2.5-4.7-6-4.7a11.76 11.76 0 0 0-5.5 1.3v2.7a9.84 9.84 0 0 1 5.1-1.4c2.3 0 3.6.9 3.6 2.4s-1.1 2.3-3.2 2.3h-2.4v2.6h2.7c2 0 3.6.6 3.6 2.6s-1.8 2.7-4 2.7a11.13 11.13 0 0 1-5.7-1.3v2.8a13.81 13.81 0 0 0 5.9 1.1c3.5 0 6.5-1.5 6.5-5a4 4 0 0 0-3.1-4.4z"/><path fill="#8a94aa" d="M155.23 291.74h9.5l-4.9 13.6zm2.7-29.5c-1.4 0-2.9-.1-4.4-.2a1.204 1.204 0 1 1 .2-2.4 38.75 38.75 0 0 0 5.9.1 1.25 1.25 0 0 1 .1 2.5h-1.8z"/><path fill="#2a2f5a" d="M159.83 242.34a1.54 1.54 0 0 0 1.5-1.5v-1.5a1.5 1.5 0 0 0-3 0v1.5a1.47 1.47 0 0 0 1.5 1.5zm0 7.3a1.54 1.54 0 0 0 1.5-1.5v-1.5a1.5 1.5 0 0 0-3 0v1.5a1.42 1.42 0 0 0 1.5 1.5zm0 7a1.54 1.54 0 0 0 1.5-1.5v-1.5a1.5 1.5 0 0 0-3 0v1.5a1.42 1.42 0 0 0 1.5 1.5zm-.5-140.1v1.5a1.5 1.5 0 1 0 3 0v-1.5a1.5 1.5 0 0 0-3 0zm1.5 29.1a1.54 1.54 0 0 0-1.5 1.5v1.5a1.5 1.5 0 0 0 3 0v-1.5a1.54 1.54 0 0 0-1.5-1.5zm117.8-78.5v-3h-18.6l-21.5 22.7a110.72 110.72 0 0 0-166 4.5l-18.2-8.6h-18.5v3h17.7l16.9 8a102.41 102.41 0 0 0-22.1 57.5l-.1 2.6v.3c.6 13 39.6 21.9 83.4 24.5-1.9 1.1-2.7 2.3-2.8 3.7a3.28 3.28 0 0 0 .9 2.2c-46.6-2.4-79.3-11.1-79.5-22l-3 .1c0 1.2.3 3.6.3 3.6 5.2 56 43.9 95.8 98.6 101.5a108.36 108.36 0 0 0 11.3.6 110.55 110.55 0 0 0 51.5-12.7l35.1 22.2h18.6v-3h-17.6l-33-20.9a109.28 109.28 0 0 0 26.3-20.7c16.3-17.5 26.1-40.5 28.6-66.6a36.8 36.8 0 0 0 .5-4.2h-3c0 3.7-6.8 9.7-20.9 14-12.2 3.7-29.9 6.3-50.9 7.7a2.2 2.2 0 0 0 .1-.8c0-1.4-.7-3-4.8-4.9 22.1-1.4 41.7-4.4 56-8.7 11.7-3.5 23.3-7.3 22.7-19.2a106.93 106.93 0 0 0-26.3-61.2l20.8-22h17.5v-.2zm-120.4 17.2l-.1-1.2a110.42 110.42 0 0 1 .5-18.2v-.1l-.5-10.1h3.7l-.1 13.1v.1a81.53 81.53 0 0 1 .3 12.1l-.2 4.3 1.1.3c8.8 2.7 11.5 4.8 12.4 5.9-16.5 3.1-26.3.3-29.7-1 1.5-1.2 4.7-2.9 11.4-4.9l1.2-.3zm4.6 36.3v.3c-4.1.7-5.2.2-5.4.1l-.2.2v-.5c0-3.9.6-16 .8-20.4a12.12 12.12 0 0 0 2 .1 14.08 14.08 0 0 0 2-.1c.2 4.4.8 16.4.8 20.3zm-2.2 51.4a24.29 24.29 0 0 0 4.2-.4l7.9 4.3c-5 .2-10 .3-15.1.3h-.5c-3.3 0-6.6 0-9.8-.1l9-4.9a8.53 8.53 0 0 0 4.3.8zm-2.5-3.2v-12.2a8.52 8.52 0 0 0 2.3.3 7.57 7.57 0 0 0 1.5-.1v12.2a17.42 17.42 0 0 1-3.8-.2zm4.3-15.3a5.72 5.72 0 0 1-5.1-.4 9.94 9.94 0 0 1-1-8.3 7.2 7.2 0 0 1 1.2-1.9c1-1.4 2.1-2.8 2.1-4.3a62.37 62.37 0 0 0-1.5-11.8c-.2-.9-.4-1.8-.5-2.6a12.06 12.06 0 0 0 3 .3c1 0 1.1.1 1.8.1-.1.7-.3 1.4-.4 2.2a61.33 61.33 0 0 0-1.5 11.8c0 1.5 1.1 2.9 2.1 4.3a9.26 9.26 0 0 1 1.2 1.9 10 10 0 0 1-1.4 8.7zm-10.3-57.8c-3.3-1.2-6.5-2.5-7.2-3.3a46.54 46.54 0 0 0 16.2 2.5 77.22 77.22 0 0 0 11.9-1 35.94 35.94 0 0 1-5.1 1.9 23.78 23.78 0 0 1-15.8-.1zm-100.8 58.8v-3.5a99.52 99.52 0 0 1 21.9-56.2l17 8 1.3-2.7-16.3-7.7a110.41 110.41 0 0 1 11.8-11.9 108.07 108.07 0 0 1 68.2-26.3l.5 10.3a102.45 102.45 0 0 0-.6 17.5c-9.7 3.1-14 6-13.8 9.5.3 4.7 9.4 7.2 13.8 8.2-.2 4.1-.9 16.7-.9 20.8a40.34 40.34 0 0 0 1 6.7 49.75 49.75 0 0 1 1.4 11.2 8 8 0 0 1-1.5 2.6 9.91 9.91 0 0 0-1.7 2.9c-1.6 6 .7 9.8 1.7 11.2v13.2l-11.1 6.1c-2.2.5-4.1 1-5.8 1.4-50.9-2-84.9-11.9-86.9-21.3zm95.2 110c-25.9-2.7-48.6-13.2-65.6-30.4-16.4-16.6-26.7-38.8-29.9-64.2 5 4.7 15 8.7 29.9 11.8s33.6 5.2 54.5 6c.5.2 1 .4 1.6.6a134.92 134.92 0 0 0 13.2 3.4c1.9.4 3.6.8 4.7 1.1a76.4 76.4 0 0 1 1 18.5l-.4 7.1c-.9 2.2-2.4 3-4 3.9-2.1 1.2-4.6 2.6-3.7 7.4l.1.7 6.1 3.2 1.5 28.5 8.9-.2 1.5-28.2 4.7-2.5 35.5 22.5a108.8 108.8 0 0 1-59.6 10.8zm10.5-33.1l-.1.2-5.3-2.8a24.89 24.89 0 0 0 7.5.8c2.2 0 4.9-.1 8.3-.3l-4.5 2.4c-4.5.9-5.9-.2-5.9-.3zm5.9 3.3l-1.3 24.1-3.2.1-1.3-24.2a9.57 9.57 0 0 0 2.7.3 18.92 18.92 0 0 0 3.1-.3zm-10.6-8.8a1 1 0 0 0-.4-.5 8.8 8.8 0 0 1 1-.6 12.9 12.9 0 0 0 4.1-3.3 9.57 9.57 0 0 0 2.7.3 21.11 21.11 0 0 0 3.2-.3 11.91 11.91 0 0 0 4.1 3.3 6.21 6.21 0 0 1 1.9 1.4c-12.7 1-15.9 0-16.6-.3zm8.8-14.5l.5 7.3a10.43 10.43 0 0 1-3.1 0l.5-7.3a82.61 82.61 0 0 0-.7-17.2 8.08 8.08 0 0 0 1.6.1 14.08 14.08 0 0 0 2-.1 76.35 76.35 0 0 0-.8 17.2zm7.1-22.3a36.69 36.69 0 0 1-16.8-.3l-.6-.1c-1.1-.2-2.1-.5-3.1-.7 2.9 0 5.9.1 8.9.1h.6c6.1 0 12-.1 17.8-.3l-4.4.8c-.6.1-1.5.3-2.4.5zm76.2-10c8.5-2.5 15.2-6 19.2-9.8-2.8 24.1-12.3 45.4-27.4 61.7a106.93 106.93 0 0 1-27 20.9l-36.8-23.3c.4-4-1.9-5.3-3.8-6.4a7.93 7.93 0 0 1-4-3.9l-.4-7.1a76.4 76.4 0 0 1 1-18.5c1.4-.3 3.6-.7 6.1-1.2 7.6-1.4 13.9-2.7 17.7-4.4 22.8-1.3 42.2-4.1 55.4-8zm-54.7 3.9a2.47 2.47 0 0 1-1.4 1.2c-9.8.6-20.2.9-31.1.9h-.6c-7.1 0-14-.1-20.7-.4-2.6-1-4-1.8-4.1-2.5 0 0 .3-1.4 6.9-3.3 6.1.3 12.2.4 18.3.4h.5q11.7 0 22.8-.6c9 2.6 9.4 4.2 9.4 4.3zm74-32.4c.3 8.7-7.5 12.1-20.6 16-15.4 4.6-37.8 7.7-62.6 9-1.4-.4-2.9-.8-4.6-1.2l-10.4-5.7v-.2a.37.37 0 0 0-.3.1l-.4-.2v-12.9h.1a1.28 1.28 0 0 0 .6-1.4 13.17 13.17 0 0 0 1.1-10.1 11 11 0 0 0-1.7-2.9 7.14 7.14 0 0 1-1.5-2.6 58.16 58.16 0 0 1 1.4-11.2 40.34 40.34 0 0 0 1-6.7c0-4.1-.6-16.7-.9-20.8 4.4-.9 13.5-3.5 13.8-8.2.2-3.5-4.1-6.4-13.8-9.5l.1-1.9a87.34 87.34 0 0 0-.3-12.5l.1-13.1 3.4.3a107.63 107.63 0 0 1 68.1 34.1l-13.8 14.6 2.2 2.1 13.7-14.4a104.4 104.4 0 0 1 25.3 59.3zm-123-12.5a4.09 4.09 0 0 0 1.6-1.6 4.22 4.22 0 0 0-1.2-5.6l-2.9-1.9a3.52 3.52 0 0 0-3-.5 4 4 0 0 0-2.5 2.1 4.76 4.76 0 0 0-.4 2.6l-1.8-1.1 1.1-2.3a3.37 3.37 0 0 0-1.3-4.4l-9.2-5.7.4-1.1a33.15 33.15 0 0 0 .8-21.7c-2.2-6.8-6.6-11.7-12.4-13.8l-.3-.1v-.2h-.4c-11.7-3.7-25.5 5.2-30.9 20.2-5.5 15.3-.3 31.2 11.6 35.5a19 19 0 0 0 6.3 1.1 22.62 22.62 0 0 0 12.1-3.8 30.54 30.54 0 0 0 8.7-8.5l3.7 2.2a8.26 8.26 0 0 0-.7 1.3l-.3.6-.5.9c-1 1.8-2.3 4.2-.2 5.6l3 1.9.1.1a4.06 4.06 0 0 0 1.7.5c2 0 3.3-2 3.7-2.7l1.6-3.1 24.5 14.7 1.5-2.6-14.4-8.6zm-59.4-34c4.1-11.5 13.5-19.1 22.5-19.1a15.26 15.26 0 0 1 3 .3 105.17 105.17 0 0 1-.6 15.2c-5 .1-10.1 4.4-12.4 10.9a19 19 0 0 0-1 9 26.63 26.63 0 0 1-12.7 2 31.52 31.52 0 0 1 1.2-18.3zm27-.2c4.2 1.5 5.7 7.8 3.5 14.1s-7.5 10.1-11.7 8.6-5.7-7.8-3.5-14.1c1.9-5.4 6-9 9.8-9a4.33 4.33 0 0 1 1.9.4zm-1.5 29.5c-5.2 3.3-10.8 4.2-15.7 2.4-4.6-1.7-8-5.4-10-10.3h1a28.88 28.88 0 0 0 11.4-2.1 9.55 9.55 0 0 0 5.6 6 9.18 9.18 0 0 0 2.8.5c3.4 0 7-2 9.6-5.4l1.6 3.2a28.07 28.07 0 0 1-6.3 5.7zm6.6-11.8c.4-.8.8-1.7 1.2-2.6 2.8-7.8.5-15.9-5.3-17.9h-.1a97.61 97.61 0 0 0 .7-14.7c4.5 1.9 8 6 9.7 11.6a31.44 31.44 0 0 1-.8 19.8 36.55 36.55 0 0 1-3.7 7.4zm13.1 11.6l-1.5 2.9c-.9 1.4-1.2 1.3-1.4 1.2l-2.6-1.6a15 15 0 0 1 .9-1.8l.5-.9.3-.6.6-1.2 3.2 1.9v.1zm2.5-4.7l-.9 2a2.62 2.62 0 0 0-.9-.5l-3.3-2-.1-.1-.2-.1-4.9-2.9c.5-.8.9-1.6 1.3-2.4l8.9 5.5a.44.44 0 0 1 .1.5zm10.7 6.6a.66.66 0 0 1-.5.4.75.75 0 0 1-.5-.1l-2.9-2a1.21 1.21 0 0 1-.3-1.5.82.82 0 0 1 .5-.5.75.75 0 0 1 .5.1l2.9 1.9a1.15 1.15 0 0 1 .3 1.7z"/></svg>